<?xml version="1.0" encoding="UTF-8"?>
<svg id="Layer_1" data-name="Layer 1" xmlns="http://www.w3.org/2000/svg" viewBox="0 0 1078.87 575.6">
  <defs>
    <style>
      .cls-1 {
        fill: #404041;
      }

      .cls-1, .cls-2 {
        stroke-width: 0px;
      }

      .cls-2 {
        fill: #f16622;
      }
    </style>
  </defs>
  <g>
    <path class="cls-1" d="m0,350.7h31.71v-200.28H0v-4.1h53.13c2.66,0,5.33-.05,8-.15,2.66-.1,5.33-.24,8-.44,2.66,0,5.33-.05,8-.15,2.66-.1,5.33-.15,8-.15,5.71,0,10.81.1,15.28.29,4.47.2,8.66.54,12.57,1.02,3.9.49,7.61,1.17,11.14,2.05,3.52.88,7.28,2,11.28,3.37,11.61,3.91,21.66,9.13,30.14,15.67,8.47,6.54,15.43,14.11,20.85,22.69,5.43,8.59,9.43,17.96,12,28.11,2.57,10.15,3.86,20.79,3.86,31.92,0,12.88-1.53,24.45-4.57,34.7-3.05,10.25-7.24,19.32-12.57,27.23-5.33,7.91-11.57,14.74-18.71,20.5-7.14,5.76-14.81,10.4-23,13.91-4.57,2.15-8.9,3.81-13,4.98-4.1,1.17-8.29,2.05-12.57,2.64-4.28.58-9,.97-14.14,1.17-5.14.19-11.05.29-17.71.29-2.86,0-5.91-.05-9.14-.15-3.24-.1-6.48-.25-9.71-.44-3.24-.2-6.43-.34-9.57-.44-3.14-.1-6.14-.15-9-.15H0v-4.1Zm60.27,0c3.24.39,7,.69,11.28.88,4.29.2,9,.29,14.14.29,6.47,0,12.9-.34,19.28-1.03,6.38-.68,12.47-2.15,18.28-4.39,5.81-2.24,11.23-5.46,16.28-9.66,5.04-4.2,9.57-9.71,13.57-16.54,6.09-10.54,10.33-21.33,12.71-32.36,2.38-11.03,3.57-23.08,3.57-36.16,0-15.42-1.43-29.43-4.29-42.02-2.86-12.59-7.57-23.32-14.14-32.21-6.57-8.88-15.28-15.76-26.14-20.64-10.85-4.88-24.28-7.32-40.28-7.32-4.76,0-9.1.1-13,.29-3.91.2-7.67.39-11.28.59v200.28Z"/>
    <path class="cls-1" d="m332.5,135.18h5.71v292.81h-5.71V135.18Z"/>
    <path class="cls-1" d="m455.05,350.7h31.71v-200.28h-31.71v-4.1h54.28c2.28,0,4.57-.05,6.86-.15,2.28-.1,4.57-.24,6.86-.44,2.28,0,4.57-.05,6.86-.15,2.28-.1,4.57-.15,6.85-.15,11.23,0,21.14.64,29.71,1.9,8.57,1.27,16.57,4.93,24,10.98,6.66,5.27,11.38,11.23,14.14,17.86,2.76,6.64,4.14,12.88,4.14,18.74,0,2.93-.53,6.69-1.57,11.27-1.05,4.59-3.33,9.27-6.86,14.05-3.52,4.79-8.62,9.18-15.28,13.18-6.67,4-15.52,6.69-26.56,8.05v.58c3.04.39,7.18,1.13,12.42,2.2,5.24,1.07,10.57,2.88,16,5.42,5.43,2.54,10.42,5.91,15,10.1,4.57,4.2,7.81,9.62,9.71,16.25,1.14,3.91,1.95,8.34,2.43,13.32.48,4.98.86,10.1,1.14,15.37.28,5.27.57,10.35.86,15.23.28,4.88.81,8.98,1.57,12.3,1.14,5.08,2.95,9.66,5.43,13.76,2.47,4.1,6.47,6.15,12,6.15,2.47,0,5.05-.48,7.71-1.46,2.66-.97,5.05-2.54,7.14-4.69l2.57,3.22c-.95.78-2.05,1.61-3.28,2.49-1.24.88-2.81,1.71-4.71,2.49-1.9.78-4.24,1.41-7,1.9-2.76.48-6.14.73-10.14.73-7.62,0-13.95-.98-18.99-2.93-5.05-1.95-9.1-4.83-12.14-8.64-3.05-3.81-5.28-8.49-6.71-14.05-1.43-5.56-2.43-12.05-3-19.47l-2-26.65c-.76-9.76-2.67-17.37-5.71-22.84-3.05-5.46-6.62-9.47-10.71-12.01-4.1-2.54-8.33-4.05-12.71-4.54-4.38-.48-8.19-.73-11.43-.73h-28.57v105.71h31.71v4.1h-91.98v-4.1Zm60.28-109.8h26.28c5.33,0,10.19-.68,14.57-2.05,4.38-1.36,8.14-3.76,11.28-7.17,3.14-3.41,5.57-8.05,7.28-13.91,1.71-5.86,2.57-13.27,2.57-22.25,0-10.15-1.29-18.3-3.86-24.45-2.57-6.15-5.91-10.78-10-13.91-4.1-3.12-8.67-5.17-13.71-6.15-5.05-.97-10.05-1.46-15-1.46-3.43,0-6.91.05-10.42.15-3.53.1-6.53.34-9,.73v90.48Z"/>
    <path class="cls-1" d="m760.98,135.18h5.71v292.81h-5.71V135.18Z"/>
    <path class="cls-1" d="m883.53,350.7h31.71v-200.28h-31.71v-4.1h53.7c2.66,0,5.33-.05,8-.15,2.66-.1,5.33-.24,8-.44,2.66,0,5.28-.05,7.85-.15,2.57-.1,5.19-.15,7.86-.15,10.85,0,20.9,1.32,30.14,3.95,9.24,2.64,17.23,6.39,24,11.27,6.76,4.88,12.04,10.74,15.85,17.57,3.81,6.84,5.71,14.45,5.71,22.84s-2.19,16.59-6.57,23.42c-4.39,6.84-10.19,12.59-17.42,17.28-7.24,4.69-15.67,8.3-25.28,10.83-9.62,2.54-19.67,3.81-30.14,3.81-2.67,0-6.1-.24-10.28-.73-4.19-.48-7.91-1.02-11.14-1.61v96.63h31.71v4.1h-91.98v-4.1Zm60.28-100.73c3.81.78,7.81,1.37,12,1.76,4.18.39,7.9.59,11.14.59,14.09,0,25.09-4.25,32.99-12.74,7.9-8.49,11.85-21.33,11.85-38.5,0-9.96-.95-18.25-2.86-24.89-1.9-6.63-4.9-11.96-9-15.96-4.1-4-9.43-6.78-16-8.34-6.57-1.56-14.43-2.34-23.57-2.34-3.62,0-6.91.1-9.86.29-2.96.2-5.19.39-6.71.59v99.56Z"/>
  </g>
  <polygon class="cls-2" points="1055.11 0 1050.22 29.88 1078.87 37.34 1049.01 43.98 1048.76 73.93 1035.19 48.14 1006.38 59.2 1027.86 36.62 1010.31 13.51 1037.15 25.34 1055.11 0"/>
  <g>
    <path class="cls-1" d="m2.93,546.86h10.85v-66.87H2.93v-1.37h18.18c.91,0,1.82-.02,2.74-.05.91-.03,1.82-.08,2.74-.15.91,0,1.82-.02,2.74-.05.91-.03,1.82-.05,2.74-.05,1.96,0,3.7.03,5.23.1,1.53.07,2.97.18,4.3.34,1.34.16,2.61.39,3.81.68,1.21.29,2.49.67,3.86,1.12,3.98,1.31,7.41,3.05,10.32,5.23,2.9,2.18,5.28,4.71,7.14,7.58,1.86,2.87,3.23,6,4.11,9.39.88,3.39,1.32,6.94,1.32,10.66,0,4.3-.52,8.16-1.56,11.59-1.04,3.42-2.48,6.45-4.3,9.09s-3.96,4.92-6.4,6.85c-2.44,1.92-5.07,3.47-7.87,4.64-1.56.72-3.05,1.27-4.45,1.66s-2.84.68-4.3.88c-1.47.2-3.08.33-4.84.39-1.76.06-3.78.1-6.06.1-.98,0-2.02-.02-3.13-.05-1.11-.03-2.22-.08-3.32-.15-1.11-.07-2.2-.11-3.27-.15-1.08-.03-2.1-.05-3.08-.05H2.93v-1.37Zm20.63,0c1.11.13,2.39.23,3.86.29,1.47.07,3.08.1,4.84.1,2.21,0,4.41-.11,6.6-.34,2.18-.23,4.27-.72,6.26-1.47,1.99-.75,3.85-1.82,5.57-3.23,1.73-1.4,3.27-3.24,4.64-5.52,2.09-3.52,3.54-7.12,4.35-10.8.81-3.68,1.22-7.71,1.22-12.07,0-5.15-.49-9.83-1.47-14.03s-2.59-7.79-4.84-10.75c-2.25-2.97-5.23-5.26-8.95-6.89-3.71-1.63-8.31-2.44-13.79-2.44-1.63,0-3.11.03-4.45.1-1.34.07-2.62.13-3.86.2v66.87Z"/>
    <path class="cls-1" d="m135.31,548.23h-15.74v-9.87h-.2c-.59,1.3-1.29,2.62-2.1,3.96-.82,1.34-1.83,2.54-3.03,3.62-1.21,1.08-2.61,1.95-4.21,2.64-1.6.68-3.47,1.03-5.62,1.03-2.61,0-4.73-.29-6.36-.88-1.63-.59-2.9-1.21-3.81-1.86-.46-.33-.96-.73-1.52-1.22-.56-.49-1.06-1.16-1.52-2-.46-.85-.85-1.94-1.17-3.28-.33-1.33-.49-2.98-.49-4.94v-27.77h-7.53v-1.37h15.94v30.02c0,1.7.11,3.26.34,4.69s.67,2.69,1.32,3.76c.65,1.07,1.5,1.92,2.54,2.54,1.04.62,2.41.93,4.11.93,1.43,0,2.92-.42,4.45-1.27,1.53-.85,2.93-2.05,4.2-3.62,1.27-1.56,2.33-3.44,3.18-5.62.85-2.18,1.27-4.64,1.27-7.38v-22.68h-7.43v-1.37h15.84v40.57h7.53v1.37Z"/>
    <path class="cls-1" d="m140.39,546.86h7.53v-67.75h-7.53v-1.37h15.94v36.37h.2c.91-2.54,2.48-4.69,4.69-6.45,2.21-1.76,5.12-2.64,8.7-2.64,2.8,0,5.44.6,7.92,1.81,2.48,1.21,4.66,2.8,6.55,4.79,1.89,1.99,3.39,4.32,4.5,6.99,1.11,2.67,1.66,5.48,1.66,8.41s-.57,5.85-1.71,8.55c-1.14,2.71-2.69,5.1-4.64,7.19-1.95,2.09-4.22,3.75-6.8,4.99-2.58,1.24-5.3,1.86-8.16,1.86-2.22,0-4.09-.38-5.62-1.12-1.53-.75-2.8-1.65-3.81-2.69-1.01-1.04-1.78-2.12-2.3-3.23-.52-1.11-.91-2.05-1.17-2.84h-.2v8.51h-15.74v-1.37Zm40.38-21.02c0-3-.16-5.69-.49-8.07-.33-2.38-.9-4.41-1.71-6.11s-1.95-3-3.42-3.91c-1.47-.91-3.34-1.37-5.62-1.37-2.41,0-4.4.42-5.96,1.27s-2.84,1.92-3.81,3.23c-.72.91-1.29,1.89-1.71,2.93-.43,1.04-.77,2.28-1.03,3.72-.26,1.43-.44,3.08-.54,4.94-.1,1.86-.15,4.06-.15,6.6,0,2.15.16,4.37.49,6.65.33,2.28.94,4.35,1.86,6.21.91,1.86,2.2,3.37,3.86,4.55,1.66,1.17,3.86,1.76,6.6,1.76s4.79-.52,6.36-1.56c1.56-1.04,2.74-2.54,3.52-4.5.78-1.95,1.27-4.32,1.47-7.09.2-2.77.29-5.85.29-9.24Z"/>
    <path class="cls-1" d="m242.36,547.15c-.85.65-1.86,1.22-3.03,1.71-1.17.49-2.61.73-4.3.73-3.13,0-5.39-.67-6.8-2-1.4-1.34-2.36-3.21-2.88-5.62h-.2c-.26.59-.62,1.32-1.08,2.2-.46.88-1.16,1.73-2.1,2.54-.94.82-2.2,1.5-3.76,2.05-1.56.55-3.55.83-5.96.83-2.74,0-4.92-.31-6.55-.93-1.63-.62-2.9-1.38-3.81-2.3-.91-.91-1.52-1.94-1.81-3.08-.29-1.14-.44-2.2-.44-3.18,0-2.28.46-4.11,1.37-5.48s2.1-2.46,3.57-3.27c1.47-.81,3.09-1.48,4.89-2,1.79-.52,3.6-1.07,5.43-1.66,2.15-.72,3.93-1.33,5.33-1.86,1.4-.52,2.49-1.16,3.27-1.91s1.32-1.7,1.61-2.84c.29-1.14.44-2.69.44-4.64,0-1.56-.1-2.97-.29-4.2-.2-1.24-.56-2.3-1.08-3.18-.52-.88-1.27-1.55-2.25-2-.98-.46-2.28-.68-3.91-.68-2.15,0-3.93.38-5.33,1.12-1.4.75-2.1,1.97-2.1,3.67,0,1.11.1,2.2.29,3.27.2,1.08.29,1.88.29,2.4,0,.91-.33,1.68-.98,2.3-.65.62-1.6.93-2.84.93-2.15,0-3.49-.39-4.01-1.17-.52-.78-.78-1.79-.78-3.03,0-1.43.33-2.8.98-4.11.65-1.3,1.61-2.46,2.88-3.47,1.27-1.01,2.87-1.81,4.79-2.4s4.12-.88,6.6-.88c3,0,5.51.38,7.53,1.12,2.02.75,3.65,1.76,4.89,3.03,1.24,1.27,2.12,2.71,2.64,4.3.52,1.6.78,3.28.78,5.04v24.34c0,1.89.29,3.16.88,3.81.59.65,1.43.98,2.54.98.72,0,1.47-.13,2.25-.39.78-.26,1.53-.65,2.25-1.17l.78,1.07Zm-17.11-22.88h-.2c-.13.85-1.21,1.7-3.23,2.54l-7.33,2.93c-2.09.85-3.68,2.04-4.79,3.57-1.11,1.53-1.66,3.44-1.66,5.72,0,.98.1,1.99.29,3.03.2,1.04.55,1.97,1.08,2.79.52.82,1.25,1.48,2.2,2,.94.52,2.17.78,3.67.78,2.15,0,3.89-.46,5.23-1.37,1.33-.91,2.35-2.05,3.03-3.42.68-1.37,1.14-2.85,1.37-4.45.23-1.6.34-3.05.34-4.35v-9.78Z"/>
    <path class="cls-1" d="m245.39,546.86h7.53v-39.2h-7.53v-1.37h15.94v40.57h7.53v1.37h-23.46v-1.37Zm6.36-63.35c0-1.43.5-2.66,1.52-3.67,1.01-1.01,2.23-1.52,3.67-1.52s2.66.51,3.67,1.52c1.01,1.01,1.52,2.23,1.52,3.67s-.51,2.66-1.52,3.67c-1.01,1.01-2.23,1.52-3.67,1.52s-2.66-.5-3.67-1.52c-1.01-1.01-1.52-2.23-1.52-3.67Z"/>
    <path class="cls-1" d="m301.71,546.86h10.85v-66.87h-10.85v-1.37h18.58c.78,0,1.56-.02,2.35-.05s1.56-.08,2.35-.15c.78,0,1.57-.02,2.35-.05s1.56-.05,2.35-.05c3.85,0,7.24.21,10.17.63,2.93.42,5.67,1.65,8.21,3.67,2.28,1.76,3.89,3.75,4.84,5.96.94,2.22,1.42,4.3,1.42,6.26,0,.98-.18,2.23-.54,3.76-.36,1.53-1.14,3.1-2.35,4.69-1.21,1.6-2.95,3.06-5.23,4.4-2.28,1.34-5.31,2.23-9.09,2.69v.2c1.04.13,2.46.38,4.25.73,1.79.36,3.62.96,5.48,1.81,1.86.85,3.57,1.97,5.13,3.37,1.56,1.4,2.67,3.21,3.32,5.43.39,1.3.67,2.79.83,4.45.16,1.66.29,3.37.39,5.13.1,1.76.2,3.45.29,5.08.1,1.63.28,3,.54,4.11.39,1.7,1.01,3.23,1.86,4.59.85,1.37,2.22,2.05,4.11,2.05.85,0,1.73-.16,2.64-.49.91-.33,1.73-.85,2.44-1.57l.88,1.08c-.33.26-.7.54-1.12.83-.43.29-.96.57-1.61.83-.65.26-1.45.47-2.4.63s-2.1.25-3.47.25c-2.61,0-4.77-.33-6.5-.98-1.73-.65-3.11-1.61-4.16-2.88-1.04-1.27-1.81-2.84-2.3-4.69-.49-1.86-.83-4.02-1.03-6.5l-.68-8.9c-.26-3.26-.91-5.8-1.96-7.63-1.04-1.83-2.26-3.16-3.67-4.01-1.4-.85-2.85-1.35-4.35-1.52-1.5-.16-2.8-.25-3.91-.25h-9.78v35.3h10.85v1.37h-31.48v-1.37Zm20.63-36.66h8.99c1.82,0,3.49-.23,4.99-.68,1.5-.46,2.79-1.25,3.86-2.39s1.91-2.69,2.49-4.64.88-4.43.88-7.43c0-3.39-.44-6.11-1.32-8.16-.88-2.05-2.02-3.6-3.42-4.64-1.4-1.04-2.97-1.73-4.69-2.05-1.73-.33-3.44-.49-5.13-.49-1.17,0-2.36.02-3.57.05-1.21.03-2.23.11-3.08.24v30.21Z"/>
    <path class="cls-1" d="m416.09,547.15c-.85.65-1.86,1.22-3.03,1.71-1.17.49-2.61.73-4.3.73-3.13,0-5.39-.67-6.8-2-1.4-1.34-2.36-3.21-2.88-5.62h-.2c-.26.59-.62,1.32-1.08,2.2-.46.88-1.16,1.73-2.1,2.54-.94.82-2.2,1.5-3.76,2.05-1.56.55-3.55.83-5.96.83-2.74,0-4.92-.31-6.55-.93-1.63-.62-2.9-1.38-3.81-2.3-.91-.91-1.52-1.94-1.81-3.08-.29-1.14-.44-2.2-.44-3.18,0-2.28.46-4.11,1.37-5.48s2.1-2.46,3.57-3.27c1.47-.81,3.09-1.48,4.89-2,1.79-.52,3.6-1.07,5.43-1.66,2.15-.72,3.93-1.33,5.33-1.86,1.4-.52,2.49-1.16,3.27-1.91s1.32-1.7,1.61-2.84c.29-1.14.44-2.69.44-4.64,0-1.56-.1-2.97-.29-4.2-.2-1.24-.56-2.3-1.08-3.18-.52-.88-1.27-1.55-2.25-2-.98-.46-2.28-.68-3.91-.68-2.15,0-3.93.38-5.33,1.12-1.4.75-2.1,1.97-2.1,3.67,0,1.11.1,2.2.29,3.27.2,1.08.29,1.88.29,2.4,0,.91-.33,1.68-.98,2.3-.65.62-1.6.93-2.84.93-2.15,0-3.49-.39-4.01-1.17-.52-.78-.78-1.79-.78-3.03,0-1.43.33-2.8.98-4.11.65-1.3,1.61-2.46,2.88-3.47,1.27-1.01,2.87-1.81,4.79-2.4s4.12-.88,6.6-.88c3,0,5.51.38,7.53,1.12,2.02.75,3.65,1.76,4.89,3.03,1.24,1.27,2.12,2.71,2.64,4.3.52,1.6.78,3.28.78,5.04v24.34c0,1.89.29,3.16.88,3.81.59.65,1.43.98,2.54.98.72,0,1.47-.13,2.25-.39.78-.26,1.53-.65,2.25-1.17l.78,1.07Zm-17.11-22.88h-.2c-.13.85-1.21,1.7-3.23,2.54l-7.33,2.93c-2.09.85-3.68,2.04-4.79,3.57-1.11,1.53-1.66,3.44-1.66,5.72,0,.98.1,1.99.29,3.03.2,1.04.55,1.97,1.08,2.79.52.82,1.25,1.48,2.2,2,.94.52,2.17.78,3.67.78,2.15,0,3.89-.46,5.23-1.37,1.33-.91,2.35-2.05,3.03-3.42.68-1.37,1.14-2.85,1.37-4.45.23-1.6.34-3.05.34-4.35v-9.78Z"/>
    <path class="cls-1" d="m419.12,574.23h7.53v-66.58h-7.53v-1.37h15.74v8.21h.2c.98-2.74,2.59-5,4.84-6.8,2.25-1.79,5.17-2.69,8.75-2.69,2.8,0,5.44.6,7.92,1.81,2.48,1.21,4.66,2.8,6.55,4.79,1.89,1.99,3.39,4.32,4.5,6.99,1.11,2.67,1.66,5.48,1.66,8.41s-.57,5.85-1.71,8.55c-1.14,2.71-2.69,5.1-4.64,7.19-1.95,2.09-4.22,3.75-6.8,4.99-2.58,1.24-5.3,1.86-8.16,1.86-2.22,0-4.09-.38-5.62-1.12-1.53-.75-2.79-1.63-3.76-2.64-.98-1.01-1.73-2.05-2.25-3.13-.52-1.08-.88-1.94-1.07-2.59h-.2v34.12h7.53v1.37h-23.46v-1.37Zm40.38-48.39c0-3-.16-5.69-.49-8.07-.33-2.38-.9-4.41-1.71-6.11s-1.95-3-3.42-3.91c-1.47-.91-3.34-1.37-5.62-1.37-2.41,0-4.4.42-5.96,1.27s-2.84,1.92-3.81,3.23c-.72.91-1.29,1.89-1.71,2.93-.43,1.04-.77,2.28-1.03,3.72-.26,1.43-.44,3.08-.54,4.94-.1,1.86-.15,4.06-.15,6.6,0,2.15.16,4.37.49,6.65.33,2.28.94,4.35,1.86,6.21.91,1.86,2.2,3.37,3.86,4.55,1.66,1.17,3.86,1.76,6.6,1.76s4.79-.52,6.36-1.56c1.56-1.04,2.74-2.54,3.52-4.5.78-1.95,1.27-4.32,1.47-7.09.2-2.77.29-5.85.29-9.24Z"/>
    <path class="cls-1" d="m477.1,546.86h7.53v-39.2h-7.53v-1.37h15.94v40.57h7.53v1.37h-23.46v-1.37Zm6.36-63.35c0-1.43.5-2.66,1.52-3.67,1.01-1.01,2.23-1.52,3.67-1.52s2.66.51,3.67,1.52c1.01,1.01,1.52,2.23,1.52,3.67s-.51,2.66-1.52,3.67c-1.01,1.01-2.23,1.52-3.67,1.52s-2.66-.5-3.67-1.52c-1.01-1.01-1.52-2.23-1.52-3.67Z"/>
    <path class="cls-1" d="m535.07,477.73h15.94v69.12h7.53v1.37h-15.74v-8.51h-.19c-.26.78-.66,1.73-1.18,2.84-.52,1.11-1.29,2.18-2.3,3.23-1.01,1.04-2.28,1.94-3.82,2.69-1.53.75-3.4,1.12-5.62,1.12-2.87,0-5.59-.62-8.17-1.86-2.58-1.24-4.84-2.9-6.8-4.99-1.95-2.08-3.5-4.48-4.64-7.19-1.14-2.7-1.71-5.56-1.71-8.55s.55-5.73,1.66-8.41c1.11-2.67,2.61-5,4.5-6.99,1.89-1.99,4.07-3.58,6.55-4.79,2.48-1.21,5.12-1.81,7.92-1.81,3.58,0,6.49.88,8.7,2.64,2.21,1.76,3.78,3.91,4.69,6.45h.2v-35h-7.53v-1.37Zm-16.91,48.1c0,3.39.1,6.47.29,9.24.2,2.77.68,5.13,1.47,7.09s1.95,3.46,3.52,4.5c1.57,1.04,3.68,1.56,6.35,1.56s4.94-.59,6.6-1.76c1.66-1.17,2.95-2.69,3.87-4.55.91-1.86,1.53-3.93,1.86-6.21.33-2.28.49-4.5.49-6.65,0-2.54-.05-4.74-.15-6.6-.09-1.86-.28-3.5-.54-4.94-.26-1.43-.62-2.67-1.08-3.72-.46-1.04-1.01-2.02-1.66-2.93-.98-1.3-2.25-2.38-3.82-3.23s-3.55-1.27-5.96-1.27c-2.28,0-4.16.46-5.62,1.37-1.47.91-2.61,2.22-3.42,3.91s-1.39,3.73-1.71,6.11c-.33,2.38-.49,5.07-.49,8.07Z"/>
    <path class="cls-1" d="m591.39,546.86h10.85v-66.87h-10.85v-1.37h18.38c.91,0,1.82-.02,2.74-.05.91-.03,1.82-.08,2.74-.15.91,0,1.81-.02,2.69-.05.88-.03,1.78-.05,2.69-.05,3.72,0,7.15.44,10.32,1.32,3.16.88,5.9,2.14,8.21,3.76,2.31,1.63,4.12,3.59,5.43,5.87,1.3,2.28,1.95,4.82,1.95,7.63s-.75,5.54-2.25,7.82c-1.5,2.28-3.49,4.2-5.96,5.77-2.48,1.56-5.36,2.77-8.65,3.62s-6.73,1.27-10.31,1.27c-.91,0-2.09-.08-3.52-.24-1.43-.16-2.71-.34-3.81-.54v32.26h10.85v1.37h-31.48v-1.37Zm20.63-33.63c1.3.26,2.67.46,4.11.59,1.43.13,2.71.2,3.81.2,4.82,0,8.59-1.42,11.29-4.25,2.7-2.84,4.06-7.12,4.06-12.86,0-3.32-.33-6.09-.98-8.31-.65-2.22-1.68-3.99-3.08-5.33-1.4-1.34-3.23-2.26-5.48-2.79-2.25-.52-4.94-.78-8.07-.78-1.24,0-2.36.03-3.37.1-1.01.07-1.78.13-2.3.2v33.24Z"/>
    <path class="cls-1" d="m654.45,546.86h7.53v-39.2h-7.53v-1.37h15.74v9.88h.19c.26-.98.68-2.09,1.27-3.32.59-1.24,1.4-2.43,2.45-3.57,1.04-1.14,2.3-2.1,3.76-2.88s3.24-1.17,5.33-1.17c1.5,0,2.8.24,3.91.73,1.11.49,2.02,1.11,2.74,1.86.72.75,1.24,1.61,1.56,2.59.33.98.49,1.95.49,2.93,0,2.15-.49,3.58-1.47,4.3-.98.72-2.12,1.08-3.42,1.08-2.87,0-4.3-.91-4.3-2.74,0-.59.06-1.06.19-1.42.13-.36.28-.72.44-1.08.16-.36.31-.76.44-1.22.13-.46.2-1.11.2-1.96,0-2.08-1.14-3.13-3.42-3.13-1.04,0-2.15.39-3.32,1.17s-2.26,1.92-3.27,3.42c-1.01,1.5-1.86,3.31-2.54,5.43-.68,2.12-1.03,4.55-1.03,7.28v22.39h8.51v1.37h-24.44v-1.37Z"/>
    <path class="cls-1" d="m696,527.3c0-3.19.7-6.16,2.1-8.9,1.4-2.74,3.19-5.1,5.38-7.09,2.18-1.99,4.63-3.53,7.33-4.64,2.71-1.11,5.36-1.66,7.97-1.66s5.26.55,7.97,1.66c2.71,1.11,5.15,2.66,7.33,4.64,2.18,1.99,3.98,4.35,5.38,7.09,1.4,2.74,2.1,5.71,2.1,8.9s-.65,5.95-1.95,8.65c-1.3,2.71-3.02,5.07-5.13,7.09-2.12,2.02-4.55,3.62-7.28,4.79s-5.54,1.76-8.41,1.76-5.67-.59-8.41-1.76c-2.74-1.17-5.17-2.77-7.28-4.79-2.12-2.02-3.83-4.38-5.13-7.09-1.3-2.7-1.95-5.59-1.95-8.65Zm9.77,0c0,4.63.36,8.31,1.08,11.05.72,2.74,1.66,4.84,2.84,6.31s2.54,2.43,4.11,2.88c1.56.46,3.22.68,4.99.68s3.42-.23,4.99-.68c1.56-.46,2.93-1.42,4.11-2.88s2.12-3.57,2.83-6.31c.72-2.74,1.08-6.42,1.08-11.05,0-3.91-.26-7.19-.78-9.83-.52-2.64-1.32-4.79-2.4-6.45-1.08-1.66-2.43-2.85-4.06-3.57s-3.55-1.08-5.77-1.08-4.14.36-5.77,1.08c-1.63.72-2.98,1.91-4.06,3.57-1.07,1.66-1.87,3.81-2.39,6.45-.53,2.64-.79,5.92-.79,9.83Z"/>
    <path class="cls-1" d="m748.69,574.23h7.53v-66.58h-7.53v-1.37h15.74v8.21h.19c.98-2.74,2.59-5,4.84-6.8,2.25-1.79,5.16-2.69,8.75-2.69,2.8,0,5.44.6,7.92,1.81,2.48,1.21,4.66,2.8,6.55,4.79,1.89,1.99,3.39,4.32,4.49,6.99,1.11,2.67,1.66,5.48,1.66,8.41s-.57,5.85-1.71,8.55c-1.14,2.71-2.69,5.1-4.64,7.19-1.95,2.09-4.22,3.75-6.79,4.99-2.58,1.24-5.3,1.86-8.17,1.86-2.21,0-4.09-.38-5.62-1.12-1.53-.75-2.79-1.63-3.76-2.64-.98-1.01-1.73-2.05-2.25-3.13-.52-1.08-.88-1.94-1.08-2.59h-.2v34.12h7.53v1.37h-23.46v-1.37Zm40.38-48.39c0-3-.16-5.69-.49-8.07-.33-2.38-.9-4.41-1.71-6.11-.82-1.7-1.96-3-3.42-3.91-1.47-.91-3.34-1.37-5.62-1.37-2.41,0-4.4.42-5.96,1.27-1.56.85-2.83,1.92-3.81,3.23-.72.91-1.29,1.89-1.71,2.93-.42,1.04-.77,2.28-1.03,3.72s-.44,3.08-.54,4.94-.15,4.06-.15,6.6c0,2.15.16,4.37.49,6.65.33,2.28.94,4.35,1.86,6.21.91,1.86,2.2,3.37,3.86,4.55,1.66,1.17,3.86,1.76,6.6,1.76s4.79-.52,6.36-1.56c1.56-1.04,2.74-2.54,3.52-4.5s1.27-4.32,1.47-7.09c.2-2.77.29-5.85.29-9.24Z"/>
    <path class="cls-1" d="m818.21,523.98c0,.65-.02,1.32-.05,2-.03.68-.05,1.55-.05,2.59,0,2.15.13,4.4.39,6.75.26,2.35.83,4.46,1.71,6.35.88,1.89,2.18,3.46,3.91,4.69,1.73,1.24,4.02,1.86,6.89,1.86s5.23-.42,7.09-1.27c1.86-.85,3.32-1.87,4.4-3.08,1.08-1.21,1.87-2.43,2.4-3.67s.91-2.25,1.17-3.03l1.47.29c-.19.72-.57,1.75-1.12,3.08-.56,1.34-1.44,2.67-2.64,4.01-1.21,1.34-2.84,2.51-4.89,3.52-2.05,1.01-4.71,1.52-7.97,1.52s-6.27-.52-9.04-1.56c-2.77-1.04-5.17-2.54-7.19-4.5-2.02-1.95-3.58-4.29-4.69-6.99-1.11-2.7-1.66-5.72-1.66-9.04,0-2.87.57-5.65,1.71-8.36,1.14-2.7,2.7-5.1,4.69-7.19,1.99-2.08,4.32-3.76,6.99-5.03,2.67-1.27,5.54-1.91,8.6-1.91,1.82,0,3.78.33,5.86.98,2.09.65,4.03,1.71,5.82,3.18,1.79,1.47,3.29,3.41,4.5,5.82,1.2,2.41,1.81,5.41,1.81,9h-30.11Zm20.14-1.37c.13-.91.19-1.76.19-2.54v-2.44c0-2.21-.21-4.04-.63-5.48-.42-1.43-1.01-2.57-1.76-3.42-.75-.85-1.66-1.45-2.74-1.81-1.07-.36-2.23-.54-3.47-.54-2.22,0-4.04.44-5.48,1.32-1.43.88-2.57,2.07-3.42,3.57s-1.48,3.23-1.9,5.18c-.43,1.95-.7,4.01-.83,6.16h20.04Z"/>
    <path class="cls-1" d="m855.46,546.86h7.53v-39.2h-7.53v-1.37h15.74v9.88h.19c.26-.98.68-2.09,1.27-3.32.59-1.24,1.4-2.43,2.45-3.57,1.04-1.14,2.3-2.1,3.76-2.88s3.24-1.17,5.33-1.17c1.5,0,2.8.24,3.91.73,1.11.49,2.02,1.11,2.74,1.86.72.75,1.24,1.61,1.56,2.59.33.98.49,1.95.49,2.93,0,2.15-.49,3.58-1.47,4.3-.98.72-2.12,1.08-3.42,1.08-2.87,0-4.3-.91-4.3-2.74,0-.59.06-1.06.19-1.42.13-.36.28-.72.44-1.08.16-.36.31-.76.44-1.22.13-.46.2-1.11.2-1.96,0-2.08-1.14-3.13-3.42-3.13-1.04,0-2.15.39-3.32,1.17s-2.26,1.92-3.27,3.42c-1.01,1.5-1.86,3.31-2.54,5.43-.68,2.12-1.03,4.55-1.03,7.28v22.39h8.51v1.37h-24.44v-1.37Z"/>
    <path class="cls-1" d="m894.27,506.28h7.53v-12.61c.52.2,1.01.36,1.47.49.46.13,1.24.2,2.35.2.98,0,1.83-.11,2.54-.34.72-.23,1.4-.6,2.05-1.12v13.39h13.88v1.37h-13.88v31.97c0,1.83.18,3.31.53,4.45.36,1.14.83,2.02,1.42,2.64.58.62,1.22,1.03,1.9,1.22s1.35.29,2,.29c2.28,0,4.12-.83,5.52-2.49,1.4-1.66,2.3-3.57,2.69-5.72l1.37.49c-.19.85-.49,1.79-.88,2.84-.39,1.04-.99,2.04-1.81,2.98-.82.95-1.88,1.73-3.18,2.35-1.3.62-2.93.93-4.89.93-4.89,0-8.29-.94-10.22-2.84-1.92-1.89-2.88-4.56-2.88-8.02v-31.09h-7.53v-1.37Z"/>
    <path class="cls-1" d="m927.9,546.86h7.53v-39.2h-7.53v-1.37h15.94v40.57h7.53v1.37h-23.46v-1.37Zm6.36-63.35c0-1.43.5-2.66,1.52-3.67,1.01-1.01,2.23-1.52,3.67-1.52s2.66.51,3.67,1.52,1.51,2.23,1.51,3.67-.5,2.66-1.51,3.67c-1.01,1.01-2.23,1.52-3.67,1.52s-2.66-.5-3.67-1.52c-1.01-1.01-1.52-2.23-1.52-3.67Z"/>
    <path class="cls-1" d="m968.38,523.98c0,.65-.02,1.32-.05,2-.03.68-.05,1.55-.05,2.59,0,2.15.13,4.4.39,6.75.26,2.35.83,4.46,1.71,6.35.88,1.89,2.18,3.46,3.91,4.69,1.73,1.24,4.02,1.86,6.89,1.86s5.23-.42,7.09-1.27c1.86-.85,3.32-1.87,4.4-3.08,1.08-1.21,1.87-2.43,2.4-3.67s.91-2.25,1.17-3.03l1.47.29c-.19.72-.57,1.75-1.12,3.08-.56,1.34-1.44,2.67-2.64,4.01-1.21,1.34-2.84,2.51-4.89,3.52-2.05,1.01-4.71,1.52-7.97,1.52s-6.27-.52-9.04-1.56c-2.77-1.04-5.17-2.54-7.19-4.5-2.02-1.95-3.58-4.29-4.69-6.99-1.11-2.7-1.66-5.72-1.66-9.04,0-2.87.57-5.65,1.71-8.36,1.14-2.7,2.7-5.1,4.69-7.19,1.99-2.08,4.32-3.76,6.99-5.03,2.67-1.27,5.54-1.91,8.6-1.91,1.82,0,3.78.33,5.86.98,2.09.65,4.03,1.71,5.82,3.18,1.79,1.47,3.29,3.41,4.5,5.82,1.2,2.41,1.81,5.41,1.81,9h-30.11Zm20.14-1.37c.13-.91.19-1.76.19-2.54v-2.44c0-2.21-.21-4.04-.63-5.48-.42-1.43-1.01-2.57-1.76-3.42-.75-.85-1.66-1.45-2.74-1.81-1.07-.36-2.23-.54-3.47-.54-2.22,0-4.04.44-5.48,1.32-1.43.88-2.57,2.07-3.42,3.57s-1.48,3.23-1.9,5.18c-.43,1.95-.7,4.01-.83,6.16h20.04Z"/>
    <path class="cls-1" d="m1008.46,534.54h1.08c.46,1.56,1.04,3.14,1.76,4.74.72,1.6,1.68,3.06,2.88,4.4,1.2,1.34,2.69,2.43,4.45,3.27,1.76.85,3.88,1.27,6.36,1.27,2.09,0,3.94-.63,5.57-1.91s2.44-3.34,2.44-6.21c0-2.48-.63-4.22-1.9-5.23-1.27-1.01-2.76-1.81-4.45-2.39l-7.63-2.64c-.98-.33-2.04-.73-3.18-1.22-1.14-.49-2.2-1.17-3.17-2.05-.98-.88-1.78-2-2.4-3.37-.62-1.37-.93-3.13-.93-5.28,0-1.83.36-3.52,1.08-5.08.72-1.56,1.69-2.93,2.93-4.11s2.72-2.08,4.45-2.74c1.73-.65,3.6-.98,5.62-.98,1.43,0,2.59.11,3.47.34.88.23,1.65.46,2.3.68.65.23,1.24.46,1.76.68.52.23,1.14.34,1.86.34s1.24-.26,1.56-.78h1.08v11.15h-1.08c-.46-1.43-.98-2.82-1.56-4.16-.59-1.33-1.29-2.52-2.1-3.57-.82-1.04-1.83-1.86-3.03-2.44-1.21-.59-2.62-.88-4.25-.88-3.13,0-5.56.7-7.28,2.1-1.73,1.4-2.59,3.27-2.59,5.62,0,2.09.73,3.67,2.2,4.74,1.47,1.07,3.63,2.07,6.5,2.98l7.14,2.35c3.06,1.04,5.57,2.48,7.53,4.3,1.95,1.83,2.93,4.24,2.93,7.23,0,1.76-.34,3.49-1.03,5.18-.68,1.7-1.7,3.18-3.03,4.45-1.34,1.27-2.97,2.3-4.89,3.08s-4.12,1.17-6.6,1.17c-1.43,0-2.75-.15-3.96-.44-1.2-.29-2.31-.6-3.32-.93-1.01-.33-1.94-.63-2.79-.93-.85-.29-1.63-.44-2.35-.44s-1.24.15-1.57.44c-.33.29-.58.6-.78.93h-1.08v-13.69Z"/>
  </g>
</svg>