<svg xmlns="http://www.w3.org/2000/svg" viewBox="0 0 1600 1044" preserveAspectRatio="xMinYMid slice">
<rect width="1600" height="1044" fill="#15130f"/>
<defs><radialGradient id="g"><stop offset="0%" stop-color="#f47b49" stop-opacity=".3"/><stop offset="100%" stop-color="#f47b49" stop-opacity="0"/></radialGradient></defs>
<path d="M1302 -146L1297 -143L1298 -133L1290 -110L1294 -112L1292 -107L1299 -101L1302 -106L1304 -106L1299 -96L1302 -100L1306 -97L1302 -90L1296 -97L1286 -83L1289 -81L1298 -93L1302 -90L1282 -68L1279 -71L1283 -76L1284 -82L1283 -76L1262 -55L1259 -55L1230 -33L1200 -16L1202 -5L1193 7L1199 11L1208 8L1220 7L1233 13L1249 30L1255 30L1249 33L1258 32L1259 35L1253 36L1262 35L1264 38L1257 39L1266 38L1266 41L1261 42L1266 46L1273 47L1279 51L1273 47L1270 48L1283 57L1287 66L1291 65L1290 75L1304 94L1317 102L1320 100L1319 105L1329 113L1331 129L1335 127L1337 131L1334 133L1331 132L1333 135L1329 140L1335 148L1336 164L1330 164L1329 161L1320 158L1311 172L1313 170L1317 172L1315 176L1312 175L1310 179L1313 181L1312 184L1321 186L1322 189L1284 215L1279 217L1278 215L1279 217L1273 219L1273 217L1273 219L1262 222L1256 227L1253 225L1256 227L1254 235L1249 234L1242 224L1238 209L1244 207L1238 208L1237 202L1244 204L1243 200L1238 202L1236 193L1247 189L1250 195L1248 188L1255 193L1275 182L1274 181L1255 181L1242 192L1238 193L1246 189L1242 191L1232 192L1226 209L1221 213L1215 214L1195 206L1187 211L1183 219L1178 220L1176 227L1169 233L1159 235L1146 232L1134 238L1114 235L1101 226L1087 225L1075 216L1068 206L1047 197L1047 200L1045 195L1044 197L1047 200L1045 205L1042 207L1039 205L1035 212L1034 221L1029 225L1027 222L1023 229L1022 237L1018 239L1017 238L1012 245L1014 245L1013 251L1007 252L1011 254L1006 261L1003 262L1002 258L1006 250L1003 254L1000 252L998 253L996 271L993 270L990 280L987 279L979 297L976 296L969 309L967 310L966 308L964 311L967 312L966 315L960 315L964 308L957 305L958 307L954 310L950 305L948 316L945 317L950 317L953 321L956 320L951 333L947 331L950 334L948 337L941 331L947 328L941 329L940 335L938 336L941 336L942 342L937 347L928 364L923 371L919 368L921 370L918 371L918 374L894 401L896 402L891 408L884 413L883 410L883 414L880 417L884 416L885 418L881 422L877 422L879 425L872 431L870 436L868 438L865 436L868 439L865 443L863 440L865 434L862 439L863 443L860 447L857 445L854 448L854 456L840 473L836 475L825 465L836 453L832 446L822 459L819 459L820 461L816 466L813 465L815 462L812 464L815 472L821 468L828 475L825 481L830 476L833 480L829 485L837 492L839 490L844 493L843 499L824 512L826 515L822 517L822 521L817 522L814 530L809 531L803 539L787 531L788 508L782 500L778 499L771 508L785 521L783 528L785 532L765 555L761 553L765 556L743 581L740 583L734 579L740 584L738 586L732 580L733 577L730 580L736 586L735 588L722 602L722 605L717 608L718 609L701 630L693 635L695 640L691 638L693 634L692 640L689 642L682 638L683 636L685 638L682 636L681 638L687 646L685 644L686 646L684 645L682 648L683 650L681 649L672 657L677 653L672 650L670 652L673 656L669 658L665 659L662 647L660 648L661 652L590 665L592 671L598 670L607 694L612 708L607 716L613 732L618 737L620 737L659 700L669 711L625 753L632 772L676 729L683 737L619 798L613 792L610 794L604 787L618 773L598 720L590 716L588 710L591 708L587 709L575 677L579 668L574 677L595 732L574 741L571 734L564 734L571 735L572 742L560 743L558 739L562 730L559 735L558 746L552 750L547 750L548 757L545 757L542 751L547 744L525 763L523 762L521 749L524 740L534 729L539 717L544 719L538 733L536 734L540 735L548 706L548 675L545 677L548 692L546 710L545 716L540 714L543 702L542 689L540 672L535 664L540 662L560 675L540 661L532 665L529 660L531 657L518 642L501 632L483 627L460 626L458 637L462 635L477 636L497 641L509 647L521 659L522 664L526 661L529 667L526 669L528 671L532 685L532 704L525 725L522 731L520 730L523 734L519 742L516 742L514 749L516 763L520 764L516 768L514 766L525 783L523 785L512 769L512 772L500 778L496 777L494 774L499 768L495 765L497 756L488 738L481 726L476 727L474 725L476 723L470 720L466 722L465 718L468 716L486 718L504 730L505 727L493 718L484 715L467 713L466 711L489 710L509 718L511 715L510 713L495 708L477 706L465 708L464 706L485 699L498 700L511 704L514 702L508 698L489 696L476 698L462 703L460 701L471 693L483 689L493 688L511 692L514 690L513 687L499 685L482 686L459 698L458 696L463 690L477 680L488 676L504 675L506 672L505 670L497 670L480 675L466 683L457 693L455 691L467 674L479 667L494 662L492 659L476 664L464 673L454 686L451 684L457 671L474 655L472 651L459 662L449 680L447 679L449 668L458 654L456 652L451 654L444 671L441 669L444 658L442 654L439 655L435 666L422 664L422 668L432 672L431 675L414 674L411 675L411 678L430 679L440 683L439 686L416 684L403 689L402 692L429 687L441 689L441 693L430 693L416 698L404 704L397 712L400 714L420 699L445 696L446 699L429 703L412 713L400 728L403 730L413 717L425 708L448 702L448 704L436 709L422 721L414 733L411 744L414 745L422 727L429 718L438 712L450 707L451 710L439 717L427 732L422 744L421 752L424 752L429 736L435 727L453 712L454 715L441 730L436 740L433 757L437 757L443 732L455 717L457 718L452 726L447 743L447 758L450 760L452 757L451 738L456 725L462 720L463 723L460 725L458 734L475 765L484 772L485 776L489 776L491 781L480 788L465 793L455 781L450 783L442 779L442 772L439 775L423 772L402 762L390 750L387 746L388 744L384 746L381 741L385 738L382 734L379 718L383 692L394 673L393 668L399 661L414 656L428 645L438 642L448 634L451 633L451 636L453 628L438 625L426 626L410 633L401 643L395 656L383 672L372 695L370 723L374 742L378 742L380 747L373 752L372 776L374 752L378 749L382 757L390 764L407 777L418 781L419 786L403 781L389 772L384 765L380 766L394 776L406 783L435 792L436 788L434 790L420 787L422 783L446 784L454 792L454 800L424 814L414 812L422 813L420 809L403 813L395 817L343 870L322 886L300 898L290 898L270 880L276 872L281 857L277 858L270 856L259 845L255 846L254 843L242 847L242 866L246 866L253 872L253 875L249 875L232 865L232 857L226 853L248 840L259 839L248 840L234 846L221 858L221 865L227 876L239 892L248 895L258 893L269 882L291 902L294 905L294 912L296 906L300 909L300 912L297 909L295 913L291 915L288 922L293 925L289 929L290 933L292 933L282 931L284 932L282 934L276 937L278 938L283 935L285 939L270 936L284 924L284 922L282 923L285 919L280 923L278 924L281 921L277 923L282 913L289 908L289 907L287 908L290 902L278 915L267 935L260 933L284 942L259 935L265 937L257 950L253 951L248 946L243 943L246 946L243 952L237 948L237 942L237 948L245 955L238 962L235 963L235 961L226 963L224 961L228 961L223 959L217 961L210 966L207 966L208 967L203 971L203 972L199 975L196 973L199 975L197 977L195 973L195 978L191 974L190 980L179 988L173 989L174 998L165 1000L162 997L168 995L167 992L172 986L167 993L155 996L147 1001L147 1003L145 1003L141 990L137 991L140 991L144 1002L145 1005L142 1008L134 1008L128 1004L132 997L127 1003L138 1012L131 1020L126 1021L127 1017L124 1020L128 1026L127 1034L163 1074L207 1087L217 1085L229 1096L237 1096L239 1102L236 1102L234 1097L231 1098L230 1107L231 1110L235 1110L237 1105L239 1105L239 1110L229 1113L215 1134L214 1133L225 1116L227 1108L226 1099L222 1095L162 1077L111 1023L117 1018L112 1021L110 1019L114 1015L110 1018L108 1017L113 1013L108 1016L106 1015L110 1011L106 1012L109 1009L106 1010L108 1008L105 1005L110 1001L117 1005L117 1004L108 999L98 1000L92 1004L88 1011L72 995L69 997L94 1024L90 1030L86 1022L87 1026L98 1038L92 1047L88 1047L89 1050L87 1047L87 1049L83 1055L78 1054L80 1056L78 1060L74 1061L74 1059L73 1068L63 1072L60 1067L63 1065L61 1064L57 1069L57 1073L58 1076L61 1075L62 1079L54 1084L51 1082L52 1084L49 1083L50 1085L46 1087L48 1090L36 1095L29 1103L32 1103L28 1106L26 1104L30 1098L23 1105L15 1103L15 1095L19 1092L15 1070L19 1065L18 1061L21 1061L16 1056L12 1056L5 1061L7 1061L6 1063L9 1067L11 1064L12 1069L15 1069L14 1074L10 1077L13 1086L6 1090L3 1087L5 1085L1 1085L-2 1087L-3 1093L-1 1091L1 1093L0 1098L4 1096L8 1099L14 1096L13 1105L7 1111L3 1111L2 1108L2 1111L-6 1112L-8 1109L-12 1110L-14 1105L-10 1115L-14 1118L-20 1121L-22 1116L-27 1117L-23 1117L-21 1121L-24 1124L-26 1121L-28 1124L-30 1121L-29 1117L-31 1117L-32 1121L-30 1125L-33 1127L-34 1124L-33 1127L-39 1131L-41 1128L-40 1124L-36 1122L-41 1124L-40 1127L-46 1128L-41 1128L-40 1131L-44 1135L-51 1134L-52 1132L-47 1127L-52 1131L-55 1124L-52 1136L-54 1137L-61 1123L-61 1129L-56 1132L-55 1136L-59 1139L-69 1138L-72 1130L-66 1126L-73 1127L-78 1111L-72 1098L-75 1096L-85 1098L-84 1132L-90 1142L-90 1149L-92 1153L-87 1155L-85 1164L-83 1163L-85 1166L-85 1172L-80 1172L-84 1168L-82 1166L-78 1174L-70 1175L-66 1173L-69 1167L-63 1159L-50 1154L-46 1160L-66 1178L-73 1189L-82 1182L-84 1188L-82 1195L-75 1196L-82 1194L-84 1188L-80 1185L-73 1190L-73 1193L-66 1196L-49 1197L-47 1189L-40 1181L-200 1244L1800 1244L1800 -200Z" fill="#2a2621"/>
<path d="M936 344L934 347L930 344L932 341L936 344ZM1353 -119L1349 -114L1352 -120L1353 -119ZM867 414L860 422L853 424L862 413L861 408L870 408L874 411L867 414ZM808 454L813 458L815 456L814 453L816 456L805 461L789 463L774 460L762 453L764 447L783 456L808 454ZM846 362L844 360L848 357L859 375L861 391L857 406L854 404L859 403L853 399L854 380L846 362ZM758 437L760 442L758 448L749 430L748 407L755 386L770 365L789 352L808 345L828 345L844 353L841 358L823 351L804 352L779 368L761 389L757 400L754 418L758 437ZM778 383L784 382L784 376L787 375L792 390L791 379L795 368L797 394L800 375L806 363L810 361L812 364L802 382L800 397L810 374L822 363L826 362L825 366L811 380L803 400L817 380L833 370L838 370L816 386L806 402L822 386L842 380L818 394L809 404L825 394L844 390L843 393L825 398L811 407L823 401L843 401L841 404L828 404L814 409L826 412L832 407L832 417L836 421L839 421L843 414L847 418L842 425L852 434L856 435L853 445L844 451L826 434L818 432L818 430L812 431L817 424L811 413L808 427L811 440L808 442L805 428L808 410L803 425L801 444L798 445L799 426L805 408L794 425L788 446L789 428L803 406L787 421L778 444L776 438L782 422L800 404L784 413L770 432L767 432L781 411L797 401L782 406L768 418L764 418L765 414L775 406L793 398L768 402L772 397L789 394L773 392L773 389L779 388L778 383ZM836 173L834 176L832 173L836 169L836 173ZM933 89L932 93L928 89L930 87L933 89ZM908 149L905 147L913 148L908 149ZM827 144L825 144L825 141L828 142L827 144ZM879 125L883 128L878 130L879 125ZM853 171L847 170L846 167L850 166L854 168L853 171ZM821 171L817 177L819 182L814 186L817 189L824 186L825 190L819 194L814 193L811 187L806 186L812 178L810 171L814 173L817 169L814 164L813 168L806 168L809 152L806 134L810 120L817 121L813 125L812 134L819 139L814 143L817 149L814 156L824 168L821 171ZM896 61L893 57L898 52L902 55L898 59L901 63L896 61ZM915 99L913 98L917 95L918 98L915 99ZM949 107L948 112L944 112L946 100L950 102L949 107ZM927 149L923 151L923 147L927 149ZM830 162L827 164L825 162L828 158L830 162ZM933 133L935 138L930 132L933 133ZM856 183L853 186L849 182L861 182L856 183ZM930 150L932 153L929 155L926 153L930 151L928 146L930 150ZM838 122L833 121L836 119L838 122ZM858 157L855 159L853 156L857 155L858 157ZM929 84L933 83L934 86L929 84Z" fill="#2a2621"/><path d="M922 144L919 146L918 141L921 141L922 144ZM892 85L897 85L898 88L890 86L892 85ZM855 164L856 160L858 166L856 168L854 167L855 164ZM836 161L832 163L834 158L836 161ZM907 79L903 78L907 75L907 79ZM835 143L833 146L830 143L835 141L835 143ZM902 105L907 107L902 109L900 106L902 105ZM821 112L824 113L821 117L821 112ZM920 92L917 92L916 88L920 88L920 92ZM898 153L894 154L896 149L898 153ZM828 153L831 154L829 156L824 154L825 151L828 153ZM812 204L821 219L842 227L875 228L886 225L875 228L842 228L820 219L812 204ZM904 135L906 139L902 139L900 135L904 135ZM891 136L892 139L887 140L888 134L891 134L891 136ZM854 136L852 139L850 133L854 136ZM910 112L911 115L907 114L908 111L910 112ZM853 149L854 151L852 152L846 148L853 149ZM925 62L925 65L920 59L925 62ZM824 132L821 132L821 128L825 129L824 132ZM938 106L936 107L934 105L938 104L938 106ZM978 108L980 90L974 64L967 53L952 41L967 53L974 63L981 91L978 108ZM894 102L891 103L888 98L894 102ZM905 100L902 101L901 98L903 97L905 100ZM939 88L947 85L941 83L954 81L967 87L969 93L962 89L951 90L949 84L939 90L939 94L937 91L939 88ZM980 115L979 125L971 141L968 156L954 179L943 187L954 178L967 158L971 140L979 125L980 115Z" fill="#2a2621"/><path d="M913 132L914 136L909 133L911 130L913 132ZM830 170L830 166L832 166L833 170L830 170ZM926 92L925 94L922 91L925 89L926 92ZM835 128L833 131L830 129L834 125L835 128ZM853 176L852 178L847 176L850 173L853 176ZM843 148L837 150L840 146L843 148ZM889 72L892 69L896 72L892 74L889 72ZM922 196L919 195L916 205L912 206L915 189L923 191L926 200L918 201L922 196ZM916 106L916 102L924 110L916 106ZM892 173L886 174L889 170L892 173ZM890 90L885 91L887 87L890 90ZM896 80L904 84L910 78L911 81L905 87L897 81L890 81L892 77L896 80ZM811 78L804 88L793 118L786 161L787 171L794 191L806 210L798 201L788 177L786 156L792 121L803 89L812 75L819 53L827 45L819 53L811 78ZM926 135L928 138L926 140L923 136L926 135ZM904 91L902 94L899 93L901 89L904 89L904 91ZM951 59L959 63L952 63L956 70L947 60L951 59ZM828 126L824 125L825 122L830 123L828 126ZM837 181L832 181L830 177L837 181ZM910 90L907 90L907 88L913 88L913 90L910 90ZM916 76L912 75L918 72L916 76ZM887 127L885 131L884 126L887 127ZM845 170L841 172L838 169L842 168L845 170ZM838 165L835 166L837 162L838 165ZM894 109L891 111L890 106L893 106L894 109ZM955 103L952 98L944 99L943 94L949 91L951 94L953 93L958 97L965 95L973 98L969 103L967 102L970 98L963 103L957 102L954 116L950 113L953 103L955 103Z" fill="#2a2621"/><path d="M917 152L914 150L917 146L917 151L923 151L923 154L917 152ZM920 125L916 125L916 122L920 125ZM921 82L918 84L916 78L919 78L921 82ZM912 140L908 141L908 136L917 139L916 143L912 142L912 140ZM851 130L849 131L847 126L849 126L851 130ZM851 158L851 160L848 160L849 155L851 158ZM892 116L893 119L887 116L888 112L892 116ZM889 146L895 144L894 148L886 147L885 140L889 146ZM933 70L930 72L928 64L932 66L933 70ZM838 154L835 156L832 151L838 154ZM907 73L905 74L903 71L905 69L907 73ZM889 104L886 106L883 101L889 104ZM913 105L912 108L909 107L909 102L913 105ZM831 172L828 175L825 172L829 170L831 172ZM925 77L921 77L921 75L923 74L925 77ZM897 139L901 139L898 144L896 141L890 142L897 139ZM919 58L917 59L914 56L919 54L919 58ZM843 129L841 130L838 126L843 129ZM847 135L847 137L844 135L844 132L847 135ZM915 126L914 129L909 128L910 126L915 126ZM844 162L843 165L840 163L844 162ZM847 153L844 156L841 155L845 151L847 153ZM906 56L904 53L908 52L906 56ZM900 75L896 74L900 70L900 75ZM886 77L889 80L886 85L886 77Z" fill="#2a2621"/><path d="M834 113L831 117L831 112L834 113ZM830 56L860 32L896 18L934 24L959 33L936 25L896 18L860 32L830 56ZM920 135L922 137L920 139L918 136L920 135ZM910 100L906 100L907 96L910 100ZM974 89L972 90L970 83L964 78L952 79L959 76L970 78L974 89ZM841 124L840 121L842 119L844 120L841 124ZM827 149L824 150L823 145L827 149ZM-184 1227L-192 1224L-183 1229L-180 1235L-208 1216L-223 1215L-225 1219L-229 1217L-223 1206L-223 1211L-219 1210L-210 1196L-195 1187L-181 1167L-150 1141L-120 1131L-107 1124L-104 1114L-114 1069L-112 1065L-108 1065L-103 1077L-104 1085L-98 1118L-92 1131L-101 1143L-109 1145L-130 1135L-132 1137L-127 1143L-135 1137L-133 1140L-136 1141L-150 1143L-150 1150L-160 1152L-161 1156L-168 1158L-163 1159L-168 1159L-166 1162L-169 1162L-164 1168L-173 1164L-174 1168L-183 1171L-192 1184L-190 1189L-195 1189L-203 1211L-196 1220L-186 1223L-184 1227ZM1375 -142L1379 -144L1383 -141L1381 -131L1376 -133L1375 -142ZM171 993L173 992L174 997L169 998L168 994L171 993ZM883 180L886 181L883 184L881 182L883 180ZM868 75L869 85L867 82L868 75ZM878 177L879 180L876 182L874 179L878 177ZM903 38L899 41L897 49L891 50L895 37L903 35L903 38ZM876 65L879 67L877 71L872 72L871 64L876 65ZM877 61L878 57L883 63L877 61ZM901 197L909 198L904 200L898 196L894 188L901 197ZM870 85L874 88L871 89L870 85ZM889 185L890 183L893 189L889 185ZM592 616L599 618L607 612L609 616L613 614L621 604L618 600L623 599L626 602L624 593L599 609L624 593L631 611L647 606L657 638L655 639L652 634L642 633L653 633L647 611L640 610L636 613L637 623L634 624L632 631L632 634L639 633L640 634L585 645L584 648L582 636L573 627L596 611L576 626L580 630L589 628L593 621L602 618L592 616ZM868 107L869 115L866 108L868 107ZM832 106L837 107L839 110L837 113L831 110L825 112L827 108L830 109L832 106ZM849 118L853 122L852 124L847 122L849 118ZM883 91L879 96L875 97L878 87L883 87L883 91ZM848 115L843 117L838 113L839 110L848 115Z" fill="#2a2621"/><path d="M877 108L876 112L872 111L870 104L874 102L874 99L881 100L878 107L884 106L885 109L883 109L884 106L882 108L884 110L877 108ZM820 109L818 107L820 106L822 107L820 109ZM830 108L825 107L830 105L830 108ZM890 96L891 91L894 91L893 96L890 96ZM830 102L834 100L835 102L831 104L830 102ZM944 173L941 173L938 167L941 149L952 139L957 127L955 130L953 129L955 124L963 130L959 129L953 144L945 151L944 173ZM920 104L921 102L922 107L918 105L920 104ZM954 144L962 134L955 146L954 144ZM875 124L872 128L868 124L875 124ZM894 97L897 96L898 101L894 100L894 97ZM905 57L904 61L902 57L905 57ZM878 132L882 133L880 137L876 134L878 132ZM887 95L885 97L881 95L883 92L887 95ZM880 75L884 75L884 84L878 84L880 75ZM885 68L884 64L887 57L890 57L894 64L888 64L885 68ZM911 68L916 68L919 64L923 69L911 71L911 68ZM904 48L906 50L904 53L901 49L905 46L920 39L924 41L916 52L912 47L911 52L904 48ZM889 165L883 169L884 166L889 165ZM899 187L898 188L893 182L899 187ZM876 173L873 176L870 172L874 170L876 173ZM882 172L887 176L886 178L880 175L882 172ZM892 176L893 178L889 179L892 176ZM891 162L894 165L892 168L891 162ZM882 169L880 172L876 170L882 169ZM842 181L845 184L837 181L842 181Z" fill="#2a2621"/><path d="M1307 111L1305 117L1303 110L1307 105L1309 107L1307 111ZM875 120L874 112L878 114L881 111L885 120L881 122L882 117L878 114L876 120L879 120L880 123L876 124L875 120ZM1129 66L1130 67L1135 62L1124 53L1130 46L1141 55L1145 50L1136 39L1150 51L1149 47L1153 46L1136 25L1113 21L1103 16L1109 -35L1106 4L1111 5L1110 8L1111 5L1112 7L1113 5L1118 7L1121 -9L1115 -10L1113 -7L1114 -19L1116 -21L1114 -29L1122 -35L1129 -34L1132 -32L1132 -13L1142 2L1140 22L1143 26L1156 24L1144 26L1147 30L1160 30L1169 18L1173 18L1171 22L1177 14L1171 14L1184 -5L1181 -8L1153 14L1150 11L1151 4L1187 -25L1185 -29L1187 -27L1188 -30L1190 -29L1190 -33L1185 -41L1181 -38L1171 -48L1155 -40L1149 -33L1137 -26L1155 -40L1176 -50L1189 -38L1198 -13L1199 -4L1190 5L1190 13L1217 12L1231 19L1243 36L1273 61L1280 84L1297 100L1302 100L1300 102L1302 104L1305 103L1302 110L1303 116L1306 118L1316 111L1322 125L1321 135L1302 152L1298 167L1292 175L1288 173L1254 172L1246 177L1239 187L1226 191L1213 204L1194 203L1183 212L1180 211L1182 212L1180 214L1177 215L1179 211L1177 212L1172 226L1165 232L1155 232L1139 222L1136 223L1142 228L1126 234L1129 227L1123 234L1103 224L1088 223L1076 215L1069 204L1050 195L1051 193L1048 190L1047 192L1035 175L1044 168L1049 172L1052 186L1058 186L1056 183L1059 183L1062 177L1060 174L1065 175L1073 165L1074 160L1071 160L1074 159L1077 152L1074 159L1080 159L1078 152L1084 149L1084 146L1101 126L1095 126L1090 121L1087 123L1088 121L1082 109L1087 108L1088 104L1093 106L1096 112L1103 117L1107 112L1104 105L1111 106L1113 99L1108 95L1101 96L1099 92L1097 94L1102 87L1097 81L1091 88L1093 91L1084 82L1087 83L1091 77L1093 74L1092 72L1106 83L1107 89L1120 96L1122 87L1123 91L1130 81L1131 71L1129 72L1127 67L1097 48L1091 40L1089 31L1092 0L1089 31L1092 42L1116 59L1128 66L1130 64L1129 66ZM1286 211L1287 213L1279 217L1284 214L1281 215L1278 212L1276 214L1279 215L1274 215L1273 219L1258 224L1258 220L1270 211L1273 211L1272 219L1274 210L1284 209L1286 211ZM789 529L790 521L790 524L793 523L804 513L815 497L816 487L809 484L810 477L818 478L837 494L838 500L834 504L831 502L826 509L821 511L816 520L809 524L804 534L794 533L789 529ZM1246 216L1245 207L1249 208L1247 201L1250 209L1246 211L1250 215L1246 216ZM1310 113L1307 115L1307 111L1312 109L1310 113ZM1101 64L1105 54L1125 68L1124 72L1119 76L1120 82L1111 81L1105 78L1097 65L1101 64ZM1051 157L1051 163L1055 163L1056 161L1053 157L1056 158L1057 154L1055 154L1054 139L1051 135L1042 134L1037 144L1032 140L1033 131L1043 128L1043 125L1055 129L1061 145L1068 152L1065 155L1067 159L1058 167L1052 167L1045 161L1045 159L1051 157ZM238 791L232 790L208 796L199 807L203 835L209 842L218 843L226 840L249 823L227 840L218 844L208 842L203 835L198 803L205 796L232 789L238 791ZM1033 196L1033 199L1026 193L1026 188L1029 193L1029 190L1034 187L1030 185L1037 186L1041 191L1033 196ZM792 477L811 467L813 471L794 481L792 486L790 480L792 477ZM988 240L994 239L998 246L996 249L987 244L977 244L976 249L979 253L974 249L968 258L965 256L970 248L969 235L973 239L988 240ZM896 168L900 178L898 183L893 171L896 168Z" fill="#2a2621"/>
<path d="M1371 402L1389 386L1406 362L1435 290M1369 403L1371 402M1243 505L1198 550L1185 559L1110 570M1370 401L1368 403M841 736L849 713L866 684M865 683L844 723L833 772M1190 108L1184 110M1176 118L1168 130M1184 110L1191 108M1191 108L1203 104M1242 104L1232 100M1242 105L1246 107M1298 105L1282 118L1263 117M1300 104L1305 98M1348 -30L1355 -39M1330 -12L1332 -14M1312 5L1302 17L1303 30M1446 249L1447 248M1446 249L1439 273M1448 235L1448 216M738 940L735 937L738 940M1239 222L1247 238M1428 153L1408 151L1389 135M940 615L993 602L1032 583M1306 94L1299 103M1308 94L1311 85L1308 74M1172 239L1179 234M1316 121L1322 117M1236 182L1226 186M376 965L350 985L313 1038L237 1119L172 1220L152 1263M1311 79L1318 86M1307 73L1311 79M474 927L650 859L671 843L689 814M1549 179L1528 170M1635 219L1686 228L1711 236M1476 156L1494 161M1468 155L1466 155M1459 155L1463 155M1302 38L1303 36M1327 113L1316 120" fill="none" stroke="#6b645c" stroke-width="1.6" stroke-linecap="round" opacity=".7"/><path d="M1300 47L1309 76M1348 114L1337 110L1327 113M1341 107L1341 108M1348 115L1391 138M1342 108L1341 107M1341 107L1334 98M1348 114L1372 127M1370 126L1363 122M1546 -74L1542 -68M1542 -68L1519 -42M1542 -68L1547 -74M1547 -74L1552 -82M1397 142L1402 146M1390 137L1395 137L1397 133M1397 128L1396 131M1474 -66L1472 -67M1410 -117L1440 -153M1411 -118L1409 -116M1421 -88L1418 -90M1418 -90L1421 -88M1178 237L1197 233M1175 235L1171 237M1332 -14L1330 -12M1059 824L1070 779L1088 747L1256 570M1416 -92L1413 -95M1409 -116L1405 -112M1409 -116L1410 -117M1555 -209L1645 -155L1728 -130L1810 -116M1417 -91L1418 -90M1417 -91L1416 -92M1448 -76L1444 -78M1472 -67L1448 -76M1444 -78L1448 -76M1448 -76L1472 -66M1472 -66L1474 -65M1474 -65L1502 -54M1523 -45L1521 -46M1521 -46L1474 -66M1521 -46L1523 -45M1704 269L1686 281L1653 316L1577 381L1437 488" fill="none" stroke="#6b645c" stroke-width="1.6" stroke-linecap="round" opacity=".7"/><path d="M1421 -88L1427 -85M1230 100L1213 101M1233 101L1242 105M1232 100L1230 100M1230 100L1233 101M1196 209L1205 198M1204 198L1198 205M1328 113L1338 111L1348 114M1396 131L1395 136L1390 136M1236 204L1235 194M1250 240L1248 238M1248 238L1240 223M1247 238L1250 240M1455 516L1491 561L1527 595L1550 624M1203 104L1229 100M1466 155L1468 155M1466 155L1463 155M1463 155L1466 155M1184 110L1182 111M1811 -117L1728 -131L1644 -156L1617 -170L1585 -193L1565 -204M1235 203L1238 216M1235 193L1236 180M1236 180L1234 194M1237 180L1244 162M827 525L832 519M826 525L819 534M1171 237L1164 241M1434 490L1399 516L1371 531L1341 541L1290 552L1256 570M1437 488L1434 490M1437 489L1577 382L1654 316L1687 281L1705 270M1434 491L1437 489M1469 48L1469 46M1469 46L1468 48M1469 46L1473 33M1468 48L1466 63M1463 155L1459 155M1447 235L1447 237M1446 248L1446 249M1447 237L1447 240M1447 242L1446 248" fill="none" stroke="#6b645c" stroke-width="1.6" stroke-linecap="round" opacity=".7"/><path d="M1448 240L1448 237M1448 237L1448 235M1447 248L1447 243M1447 240L1447 242M1447 243L1448 240M1246 146L1243 168L1236 179M1520 169L1549 179M1499 162L1493 160M1302 37L1302 38M1302 38L1300 47M1346 -29L1343 -25M1332 -14L1337 -19M1346 -29L1348 -30M1348 -30L1346 -29M1332 -13L1337 -19M1331 -12L1332 -13M1324 -6L1331 -12M689 814L698 797M664 850L645 861L506 914M698 797L689 814M698 797L703 788M701 790L698 797M703 788L716 722M708 766L701 790M710 759L708 766M716 722L718 704M715 722L710 759M716 715L715 722M718 704L724 668L731 649M717 711L716 715M748 624L780 584M731 649L748 624M780 584L783 580M729 651L720 689M783 580L827 525M792 568L787 574M800 558L797 562M838 512L826 525M841 509L856 496M832 519L841 510" fill="none" stroke="#6b645c" stroke-width="1.6" stroke-linecap="round" opacity=".7"/><path d="M819 534L800 558M897 458L904 451M856 496L861 491M890 463L880 472M880 472L868 483M904 451L943 419M868 483L838 512M872 481L897 458M914 440L890 463M924 432L914 440M1808 1037L1722 879L1593 681M1356 -42L1358 -53M1361 -70L1361 -71M1360 -70L1359 -68M1354 -38L1348 -30M1604 -22L1601 -24M1046 873L1031 919L1010 963L975 1019L931 1073L893 1112L852 1148L717 1244M517 1099L543 1076M952 412L968 399M934 425L924 432M1104 224L1109 218M1098 231L1104 224M861 491L865 487M943 419L950 414M1125 199L1131 192M1098 231L1042 299L998 373L952 411M1147 164L1120 204M841 510L841 509M865 487L872 481M1256 570L1290 553L1345 541L1373 531L1399 517L1434 491M1256 570L1087 746L1070 776L1058 824M1398 231L1446 241M1395 230L1364 224L1282 227L1247 239M1555 -86L1584 -130M1552 -82L1555 -86M1035 469L1108 375M1303 30L1302 37M1486 7L1527 -50M1485 8L1486 7M1485 8L1485 8" fill="none" stroke="#6b645c" stroke-width="1.6" stroke-linecap="round" opacity=".7"/><path d="M1478 19L1485 8M1477 21L1478 19M1473 33L1477 21M1109 218L1116 210M153 1264L172 1222L237 1120L314 1039L349 987L377 965M410 951L418 948M377 965L381 963M381 963L410 951M506 914L376 965M958 575L957 582M959 589L960 593M1468 155L1476 156M1458 155L1459 155M1507 164L1504 163M1480 156L1468 155M1445 155L1458 155M1391 138L1397 142M1487 158L1480 156M1500 163L1504 164M1504 163L1499 162M764 602L760 607M775 588L769 597M769 597L764 602M787 574L775 588M1305 98L1308 94M1352 116L1348 114M1390 136L1370 126M1372 127L1390 137M1363 122L1352 116M1245 106L1242 104M1263 117L1245 106M957 582L959 589M1250 240L1284 287M1418 465L1410 454M1504 164L1507 165M1397 133L1398 126M1200 233L1199 232M1271 231L1347 225M1109 218L1099 229M1120 204L1109 217" fill="none" stroke="#6b645c" stroke-width="1.6" stroke-linecap="round" opacity=".7"/><path d="M720 689L717 711M510 1111L513 1106M509 1110L494 1137M933 619L940 615M866 684L868 681M1017 491L1035 469M958 577L965 556L1017 491M1168 240L1172 239M1194 212L1195 211M1196 209L1191 215M1210 193L1204 198M1226 186L1210 193M1184 233L1175 235M1154 251L1178 237M1240 179L1236 182M1255 164L1240 179M1257 162L1255 164M1261 157L1257 162M1270 146L1261 157M1273 143L1270 146M1275 142L1273 143M1283 139L1275 142M1284 138L1283 139M1293 136L1284 138M1306 128L1293 136M1312 123L1306 128M1327 114L1328 113M1322 117L1325 116M1325 116L1327 114M1312 124L1316 121M1258 162L1273 145L1292 137M1248 172L1258 162M1246 174L1248 172M1292 137L1306 129M1227 186L1236 184L1246 174M1205 198L1227 186M1244 162L1247 146M1168 130L1154 154M1152 252L1168 240M1108 375L1116 355" fill="none" stroke="#6b645c" stroke-width="1.6" stroke-linecap="round" opacity=".7"/><path d="M1122 287L1152 252M1116 355L1122 287M1508 -22L1479 16L1469 46M1509 -23L1508 -22M1082 251L1098 231M1120 205L1125 199M1131 192L1149 162M1149 162L1154 154M1157 149L1163 140M1154 154L1157 149M1163 140L1164 138M1164 138L1168 132M1168 132L1175 121M1175 121L1184 110M797 562L792 568M1299 105L1300 104M1246 107L1264 117L1275 119L1286 116L1297 107M1238 216L1239 222M1359 389L1393 434M1436 491L1445 502M1593 681L1697 840M1210 102L1201 104M1235 194L1235 193M1240 223L1237 210M1213 101L1210 102M1201 104L1190 108M679 1274L853 1148L926 1080L970 1027L1005 973L1030 924L1047 873M1468 245L1419 235M1448 216L1447 194L1451 180M1451 180L1454 174M1454 174L1467 136L1464 98L1466 76M1446 210L1447 235M1439 273L1434 288M1434 288L1434 290M1434 290L1408 358L1389 385M1435 289L1442 268M1435 290L1435 289M1110 570L1097 572M1097 572L1097 572M1097 572L1039 580L993 601L940 614L886 653" fill="none" stroke="#6b645c" stroke-width="1.6" stroke-linecap="round" opacity=".7"/><path d="M1212 537L1314 435L1328 425M1097 573L1097 573M1466 76L1466 70M1466 70L1467 63M1467 63L1469 48M1179 234L1194 212M1191 215L1177 235L1164 241M1402 146L1412 152L1445 155M1229 100L1230 100M867 680L865 683M868 681L886 655L933 619M1164 241L1144 259L1121 288L1116 348L1104 380L965 554L958 575M1199 233L1237 239M1197 233L1199 233M1199 232L1197 232M1197 232L1184 233M1239 239L1247 240M1237 239L1239 239M1238 238L1200 233M1239 238L1238 238M1247 239L1239 238M1251 239L1271 231M1247 240L1251 239M1319 87L1341 107M1318 86L1319 87M1318 85L1311 79M1319 86L1318 85M1041 580L1058 578M1058 578L1097 573M1016 345L1046 294L1074 260M1468 246L1472 247M1358 -54L1360 -69M1355 -39L1355 -41M1592 -142L1546 -74M1584 -130L1593 -143M1466 63L1465 75M1465 75L1464 81M1466 124L1465 143L1452 176M1464 81L1463 89M1362 -75L1366 -81" fill="none" stroke="#6b645c" stroke-width="1.6" stroke-linecap="round" opacity=".7"/><path d="M1366 -81L1373 -86M1373 -86L1392 -96L1409 -116M1436 -148L1413 -121M1413 -121L1411 -118M1405 -112L1392 -97M1392 -97L1373 -87M1373 -87L1363 -78M1359 -68L1356 -45M1343 -25L1332 -14M1412 -96L1416 -92M1427 -85L1444 -78M1389 135L1375 128M1349 114L1342 108M1375 128L1349 114M1334 98L1319 86M1337 -19L1341 -23M1341 -23L1346 -29M1593 680L1533 601L1492 561L1465 527M1593 681L1593 680M1592 681L1593 681M1550 624L1592 681M1674 8L1778 52M1527 -50L1542 -68M1519 -42L1509 -23M533 1082L519 1095L509 1110M1472 246L1468 245M1307 94L1306 94M1313 5L1330 -12M1355 -41L1354 -38M1858 85L1684 12M739 938L769 908L791 880L808 851L824 813M824 810L810 844L789 881L766 910L737 936M469 929L474 927M418 948L469 929M513 1106L517 1099M1347 225L1358 225M1367 225L1398 231M1528 170L1507 164M1507 165L1520 169M541 1076L533 1082" fill="none" stroke="#6b645c" stroke-width="1.6" stroke-linecap="round" opacity=".7"/><path d="M1609 215L1612 215M1592 212L1609 215M1609 215L1589 211M1612 215L1609 215M1552 182L1570 204L1592 212M1589 211L1570 203L1552 182M833 772L824 810M824 813L834 772M1047 873L1059 824M1549 179L1552 182M1552 182L1549 179M495 1137L510 1111M1494 161L1500 163M1493 160L1487 158M1612 215L1635 219M1635 219L1612 215M1058 824L1046 873M968 399L998 375L1016 345M1304 65L1300 51L1302 38M1730 244L1693 229L1635 219M1198 205L1196 209M1195 211L1196 209M1316 331L1348 375M1290 294L1290 294M1287 289L1250 240M1290 294L1290 293M1330 351L1295 301M1349 375L1346 371M1430 482L1436 491M1445 502L1452 512M1389 385L1370 401M1457 517L1450 509M1434 487L1418 465M952 411L934 425M952 411L952 411M950 413L952 412M950 414L950 413M731 649L731 649M731 648L730 648M747 624L731 648" fill="none" stroke="#6b645c" stroke-width="1.6" stroke-linecap="round" opacity=".7"/><path d="M1120 204L1120 204M1120 205L1120 205M1116 210L1120 205M1346 371L1339 362M1339 362L1330 351M1353 380L1349 375M1356 384L1353 380M1328 425L1369 403M1393 434L1413 459M1348 375L1359 389M1390 429L1385 422M1394 434L1390 429M1385 422L1356 384M1442 498L1434 487M1450 509L1442 498M1465 527L1457 517M1452 512L1455 516M1421 470L1430 482M1410 454L1407 450M1407 450L1401 443M1401 443L1394 434M1413 459L1421 470M1032 583L1041 580M1303 36L1302 18L1313 5M1363 -78L1361 -74M1361 -74L1360 -70M1361 -71L1362 -75M1360 -69L1361 -70M1355 -43L1355 -41M1356 -45L1355 -43M1355 -41L1356 -42M1299 103L1298 105M1297 107L1299 105M1418 -90L1417 -91M1416 -92L1417 -91M1444 -78L1421 -88M1358 225L1367 225M1154 154L1147 164M1099 229L1098 231M1074 260L1082 251" fill="none" stroke="#6b645c" stroke-width="1.6" stroke-linecap="round" opacity=".7"/><path d="M1330 -12L1323 -6M1323 -6L1312 5M1236 179L1236 180M1234 194L1234 195M1284 287L1290 294M1368 403L1348 414M1348 414L1317 431L1243 505M1097 573L1179 562L1194 554L1212 537M1290 293L1287 289M1236 180L1237 180M1182 111L1176 118M730 648L729 651M834 772L837 755M837 755L841 736M760 607L747 624M689 814L677 835L664 850M1446 241L1468 246M1358 -53L1358 -54M1463 89L1466 124M1442 268L1445 256M1459 155L1434 153M1434 153L1428 153M1452 176L1446 192L1446 210M1413 234L1395 230M1419 235L1413 234M1234 195L1235 203M1445 256L1446 249M1237 210L1236 204M1511 -50L1521 -46M1502 -54L1509 -50M1509 -50L1511 -50M1310 126L1312 124M1306 129L1310 126M1314 121L1312 123M1316 120L1314 121M1684 12L1604 -22M1309 76L1310 85L1307 94M1308 74L1304 65M1341 108L1348 115M886 653L867 680" fill="none" stroke="#6b645c" stroke-width="1.6" stroke-linecap="round" opacity=".7"/><path d="M1295 301L1290 294M1290 294L1316 331M1109 217L1109 218M1602 -22L1674 8" fill="none" stroke="#6b645c" stroke-width="1.6" stroke-linecap="round" opacity=".7"/>
<path d="M836 173L834 176L832 173L836 169L836 173ZM933 89L932 93L928 89L930 87L933 89ZM908 149L905 147L913 148L908 149ZM879 125L883 128L878 130L879 125ZM853 171L846 167L850 166L853 171ZM821 171L817 177L819 182L814 186L817 189L824 186L825 190L814 193L806 186L812 178L810 171L814 173L817 169L814 164L813 168L806 168L809 152L806 134L810 120L817 121L812 134L819 139L814 143L817 149L814 156L824 168L821 171ZM896 61L893 57L898 52L902 55L898 59L901 63L896 61ZM915 99L913 98L917 95L918 98L915 99ZM949 107L948 112L944 112L946 100L950 102L949 107ZM927 149L923 151L923 147L927 149ZM830 162L825 162L828 158L830 162ZM933 133L935 138L930 132L933 133ZM856 183L853 186L849 182L861 182L856 183ZM934 79L936 81L933 81L934 79ZM930 150L932 153L929 155L928 146L930 150ZM838 122L833 121L836 119L838 122ZM828 132L825 132L828 129L828 132ZM858 157L855 159L853 156L858 157ZM929 84L933 83L934 86L929 84ZM922 144L919 146L918 141L922 144ZM892 85L898 88L890 86L892 85ZM855 164L856 160L856 168L855 164ZM836 161L832 163L834 158L836 161ZM907 79L903 78L907 75L907 79ZM835 143L833 146L830 143L835 141L835 143ZM902 105L907 107L902 109L902 105ZM821 112L824 113L821 117L821 112ZM920 92L916 88L920 88L920 92ZM898 153L894 154L896 149L898 153ZM828 153L829 156L824 154L828 153ZM812 204L821 219L842 227L886 225L875 228L842 228L820 219L812 204ZM904 135L906 139L900 135L904 135ZM891 136L892 139L887 140L888 134L891 134L891 136ZM854 136L852 139L850 133L854 136ZM914 119L911 121L913 117L914 119ZM849 161L845 162L846 160L849 161ZM910 112L911 115L907 114L910 112ZM853 149L852 152L846 148L853 149ZM925 62L925 65L920 59L925 62ZM824 132L821 132L821 128L825 129L824 132ZM938 106L934 105L938 104L938 106ZM842 144L838 144L840 141L842 144ZM978 108L980 90L974 64L967 53L952 41L967 53L974 63L981 91L978 108ZM894 102L891 103L888 98L894 102ZM905 100L902 101L901 98L905 100ZM939 88L947 85L941 83L954 81L967 87L969 93L962 89L951 90L949 84L939 90L939 94L939 88ZM980 115L979 125L971 141L968 156L954 179L943 187L954 178L967 158L971 140L979 125L980 115ZM913 132L914 136L909 133L913 132ZM830 170L832 166L833 170L830 170ZM926 92L925 94L922 91L926 92ZM835 128L830 129L834 125L835 128ZM853 176L852 178L847 176L850 173L853 176ZM843 148L837 150L840 146L843 148ZM889 72L892 69L896 72L892 74L889 72ZM922 196L919 195L916 205L912 206L915 189L923 191L926 200L918 201L922 196ZM916 106L916 102L924 110L916 106ZM892 173L886 174L889 170L892 173ZM890 90L885 91L887 87L890 90ZM896 80L904 84L910 78L911 81L905 87L890 81L892 77L896 80ZM811 78L804 88L793 118L786 161L794 191L806 210L798 201L788 177L786 156L792 121L803 89L812 75L819 53L827 45L819 53L811 78Z" fill="#39332c"/><path d="M926 135L926 140L923 136L926 135ZM904 91L899 93L901 89L904 91ZM951 59L959 63L952 63L956 70L947 60L951 59ZM828 126L824 125L825 122L830 123L828 126ZM891 125L888 125L889 122L891 125ZM837 181L832 181L830 177L837 181ZM910 90L907 88L913 88L910 90ZM916 76L912 75L918 72L916 76ZM887 127L885 131L884 126L887 127ZM845 170L841 172L838 169L845 170ZM904 120L901 120L903 117L904 120ZM838 165L835 166L837 162L838 165ZM894 109L891 111L890 106L894 109ZM955 103L952 98L944 99L943 94L949 91L958 97L965 95L973 98L969 103L970 98L963 103L957 102L954 116L950 113L955 103ZM917 152L914 150L917 146L917 151L923 154L917 152ZM920 125L916 125L916 122L920 125ZM921 82L918 84L916 78L921 82ZM912 140L908 141L908 136L917 139L916 143L912 140ZM851 130L849 131L847 126L851 130ZM851 158L851 160L848 160L849 155L851 158ZM892 116L893 119L887 116L888 112L892 116ZM889 146L895 144L894 148L886 147L885 140L889 146ZM933 70L930 72L928 64L932 66L933 70ZM838 154L835 156L832 151L838 154ZM907 73L903 71L905 69L907 73ZM889 104L886 106L883 101L889 104ZM913 105L909 107L909 102L913 105ZM901 146L905 147L898 149L901 146ZM896 221L931 204L936 197L930 205L896 221ZM902 131L905 129L905 134L902 131ZM831 172L828 175L825 172L831 172ZM897 139L901 139L898 144L896 141L890 142L897 139ZM919 58L917 59L914 56L919 54L919 58ZM847 135L847 137L844 135L844 132L847 135ZM844 162L843 165L840 163L844 162ZM847 153L844 156L841 155L847 153ZM906 56L904 53L908 52L906 56ZM900 75L896 74L900 70L900 75ZM886 77L889 80L886 85L886 77ZM834 113L831 117L831 112L834 113ZM830 56L860 32L896 18L934 24L959 33L936 25L896 18L860 32L830 56ZM920 135L920 139L918 136L920 135ZM910 100L906 100L907 96L910 100ZM974 89L964 78L952 79L959 76L970 78L974 89ZM827 149L824 150L823 145L827 149ZM915 130L917 131L916 133L915 130ZM883 180L886 181L883 184L883 180ZM868 75L869 85L867 82L868 75ZM878 177L879 180L876 182L874 179L878 177ZM903 38L899 41L897 49L891 50L895 37L903 35L903 38ZM876 65L877 71L872 72L871 64L876 65ZM877 61L878 57L883 63L877 61ZM901 197L909 198L898 196L894 188L901 197ZM870 85L874 88L871 89L870 85ZM889 185L890 183L893 189L889 185ZM868 107L869 115L866 108L868 107ZM832 106L839 110L825 112L832 106ZM849 118L852 124L847 122L849 118ZM883 91L875 97L878 87L883 87L883 91ZM848 115L843 117L838 113L839 110L848 115Z" fill="#39332c"/><path d="M826 114L823 117L824 113L826 114ZM877 108L876 112L872 111L870 104L874 99L881 100L878 107L884 106L885 109L883 109L884 106L884 110L877 108ZM820 109L818 107L820 106L820 109ZM830 108L825 107L830 105L830 108ZM890 96L894 91L893 96L890 96ZM944 173L941 173L938 167L941 149L952 139L957 127L953 129L955 124L963 130L959 129L953 144L945 151L944 173ZM932 122L933 118L935 121L932 122ZM898 106L895 105L898 102L898 106ZM920 104L921 102L922 107L920 104ZM954 144L962 134L955 146L954 144ZM875 124L872 128L868 124L875 124ZM894 97L897 96L898 101L894 97ZM898 128L895 128L898 125L898 128ZM903 128L900 129L902 126L903 128ZM911 92L911 95L907 93L911 92ZM911 63L909 65L908 62L911 63ZM905 57L904 61L902 57L905 57ZM900 133L899 136L897 131L900 133ZM912 114L913 110L914 114L912 114ZM878 132L882 133L880 137L876 134L878 132ZM887 95L881 95L883 92L887 95ZM923 97L920 95L926 95L923 97ZM884 70L883 72L880 71L884 70ZM880 75L884 75L884 84L878 84L880 75ZM885 68L884 64L890 57L894 64L888 64L885 68ZM911 68L916 68L919 64L923 69L911 71L911 68ZM904 48L906 50L904 53L901 49L905 46L920 39L924 41L916 52L912 47L911 52L904 48ZM903 190L902 193L899 191L903 190ZM876 173L873 176L870 172L874 170L876 173ZM909 188L909 191L906 192L909 188ZM882 172L886 178L880 175L882 172ZM892 176L893 178L889 179L892 176ZM882 169L880 172L876 170L882 169ZM842 181L845 184L837 181L842 181ZM911 84L914 81L914 84L911 84ZM875 120L874 112L878 114L881 111L885 120L881 122L882 117L878 114L876 120L879 120L880 123L876 124L875 120ZM1051 157L1051 163L1055 163L1053 157L1057 154L1051 135L1042 134L1037 144L1032 140L1033 131L1043 125L1055 129L1061 145L1068 152L1065 155L1067 159L1058 167L1045 161L1045 159L1051 157ZM1033 196L1033 199L1026 193L1026 188L1029 193L1034 187L1030 185L1037 186L1041 191L1033 196ZM926 84L927 88L924 86L926 84ZM896 168L900 178L898 183L893 171L896 168Z" fill="#39332c"/><path d="M936 344L936 346L934 347L933 347L932 344L930 344L932 341L933 343L936 344ZM867 414L866 416L866 414L866 414L864 417L866 417L862 418L860 422L859 421L857 422L857 424L856 424L854 425L854 424L853 424L862 413L863 410L861 408L863 410L867 409L869 410L870 410L870 408L870 411L874 411L867 414ZM808 454L811 455L813 458L815 456L815 455L814 453L816 454L816 456L814 458L805 461L798 463L789 463L781 462L774 460L767 457L762 453L763 448L764 447L768 450L776 454L783 456L797 456L808 454ZM846 362L844 360L847 357L848 357L854 365L859 375L860 382L861 391L859 404L857 406L855 405L854 404L857 405L858 404L859 403L855 402L853 399L854 391L854 380L851 372L846 362ZM758 437L760 442L760 447L758 448L752 440L749 430L747 420L748 407L751 397L755 386L762 374L770 365L779 358L789 352L798 348L808 345L819 344L828 345L837 349L844 353L844 355L841 358L832 354L823 351L812 351L804 352L801 354L797 358L790 360L787 363L783 366L780 366L779 368L776 371L776 372L774 373L764 386L764 388L761 389L757 400L754 409L754 418L755 427L758 437ZM778 383L780 382L782 383L784 382L785 381L784 376L785 375L787 375L790 387L791 390L792 390L791 379L793 369L794 368L795 368L796 370L794 381L795 388L796 394L797 394L797 386L800 375L806 363L808 361L810 361L811 362L812 364L806 372L802 382L800 389L800 397L800 397L804 386L810 374L822 363L824 361L826 362L826 364L825 366L818 370L811 380L805 392L803 398L803 400L803 400L809 389L817 380L821 377L833 370L836 369L838 370L839 371L839 372L833 374L822 380L816 386L811 392L806 402L806 402L810 398L818 390L822 386L828 383L837 380L840 379L842 380L842 381L841 382L827 387L818 394L809 404L809 405L816 399L825 394L833 391L840 390L844 390L844 392L843 393L830 396L825 398L811 407L823 401L836 400L843 401L843 403L841 404L835 403L828 404L820 406L814 409L817 411L821 410L824 411L826 412L830 407L832 407L831 407L831 409L832 413L833 413L832 413L832 417L836 421L839 421L842 417L841 415L843 414L847 418L847 419L847 420L845 421L843 423L842 425L844 428L852 434L855 435L856 435L855 442L853 445L851 447L844 451L845 450L844 449L826 434L820 431L818 431L818 432L818 430L813 429L812 431L812 428L817 424L815 422L814 420L813 419L814 415L812 415L812 413L811 413L809 417L808 427L811 440L810 442L808 442L805 428L806 420L808 410L805 417L803 425L801 431L801 444L801 445L798 445L797 442L799 426L801 417L806 409L805 408L798 417L794 425L791 433L790 444L788 446L787 444L787 438L789 428L792 422L797 413L803 406L803 406L796 411L787 421L784 428L780 442L778 444L777 442L776 438L779 430L782 422L788 414L794 408L800 404L792 407L784 413L774 424L770 432L768 433L767 432L766 431L768 427L781 411L788 406L797 401L797 400L790 402L782 406L774 411L768 418L766 419L764 418L763 416L765 414L775 406L781 402L793 398L792 397L783 398L776 400L770 402L768 402L767 400L768 399L772 397L780 395L789 394L788 393L785 393L774 392L773 392L773 391L773 389L775 388L778 389L779 388L779 386L778 383ZM872 425L872 427L871 427L870 428L870 429L871 429L870 430L867 431L869 427L872 425ZM789 529L788 527L790 521L790 522L790 523L790 524L793 523L804 513L811 504L815 497L816 491L816 487L815 485L813 486L809 484L810 482L809 479L810 477L814 476L818 478L837 494L837 496L838 500L834 504L831 502L831 505L829 506L827 506L827 508L826 509L823 511L821 511L821 514L817 515L817 517L816 520L815 521L809 524L808 526L808 529L804 534L802 533L801 535L794 533L789 529ZM960 315L963 312L964 308L957 305L959 306L958 307L955 310L954 310L953 309L950 305L951 308L948 316L945 317L950 317L950 318L953 321L956 320L955 324L951 333L950 334L947 331L950 334L948 337L941 332L942 332L941 331L942 329L946 329L944 329L947 328L947 328L942 328L941 329L940 332L940 335L938 336L940 336L941 336L942 342L940 344L937 347L937 348L935 353L928 364L923 371L919 368L921 370L918 371L919 371L919 372L918 374L907 387L901 393L902 394L902 395L894 401L896 402L891 408L884 413L883 413L883 410L882 414L883 414L880 417L884 416L885 417L885 418L881 422L877 422L876 424L879 425L876 429L872 431L872 433L870 436L868 438L866 437L867 436L866 437L865 436L868 439L865 443L863 440L865 434L865 434L862 439L862 441L864 442L863 443L860 447L857 445L854 448L855 452L854 456L840 473L836 475L829 468L828 469L828 468L828 468L828 467L827 468L827 467L825 465L826 462L835 453L836 453L834 448L832 446L832 447L822 459L821 460L819 459L820 461L820 461L816 466L815 467L813 465L813 463L815 462L812 464L812 466L815 472L817 472L821 468L828 475L827 477L827 478L825 481L825 481L830 476L833 480L829 485L830 486L829 485L837 492L839 490L840 492L843 492L842 494L844 497L843 499L840 500L839 502L839 503L837 503L835 505L835 506L833 506L830 510L828 509L826 512L824 512L824 513L826 515L825 515L822 517L822 519L822 519L821 519L821 520L822 520L822 521L820 521L817 522L816 523L815 528L813 530L809 531L805 535L804 538L801 538L799 536L793 534L787 531L787 522ZM747 459L748 459L752 471L751 471L747 459ZM760 470L761 469L765 482L764 482L760 470ZM792 477L791 476L811 467L813 471L806 474L807 476L794 481L793 484L792 484L792 486L790 480L790 478L792 477Z" fill="#39332c"/>
<circle cx="486" cy="717" r="230" fill="url(#g)"/>
<path d="M592 616L597 618L599 618L603 616L607 612L607 613L607 614L608 615L609 616L610 616L612 614L613 614L617 609L619 607L620 607L619 605L621 604L618 600L619 601L620 601L621 600L622 599L622 599L623 599L624 599L625 601L625 601L626 602L626 601L627 600L624 593L623 593L599 610L599 609L623 593L624 593L625 594L631 611L646 605L647 606L657 638L655 639L654 635L652 634L642 633L642 633L653 633L652 627L647 611L646 610L644 610L643 611L641 611L640 610L639 611L638 612L636 613L637 623L637 623L634 624L634 625L634 626L634 627L633 629L632 631L633 632L632 633L632 634L639 633L640 634L585 645L585 646L584 648L585 646L582 636L574 629L573 627L596 611L597 612L578 624L576 625L576 626L577 628L580 630L589 628L591 625L592 622L593 621L596 620L600 620L602 618L598 618L592 616Z" fill="#f47b49"/><path d="M380 778L382 787L380 778L380 778Z" fill="#f47b49"/><path d="M390 788L392 796L391 797L389 788L390 788Z" fill="#f47b49"/><path d="M550 642L550 642L549 641L556 630L557 630L550 642Z" fill="#f47b49"/><path d="M279 914L288 906L289 902L290 902L290 904L289 904L289 905L287 908L289 907L288 908L289 908L288 908L286 909L286 909L288 909L284 911L284 912L284 912L282 913L282 914L283 913L283 914L281 915Z" fill="#f47b49"/><path d="M287 897L289 900L294 905L294 906L293 908L294 909Z" fill="#f47b49"/><path d="M292 899L299 898L305 896L322 886L329 881L343 870L354 860L368 845L375 838L379 834L388 825L393 819L395 817L397 817L399 817L403 813L408 813L410 812L412 812L420 809L421 810L422 811L421 811L420 811L422 813L418 812L414 812L417 814L422 814L424 814L430 811L437 809L439 807L442 805L443 805L439 809L445 806L443 806L446 805L448 802L451 801L450 801L452 802L454 800L454 799L455 795L454 792L451 789L446 784L444 784L438 784L437 785L437 784L424 782L422 783L421 785L420 787L434 790L436 788L437 789L435 792L433 790L418 788L406 783L394 776L383 767L380 767L380 766L384 765L384 765L384 767L389 772L397 777L403 781L410 784L418 787L419 786L419 783L418 781L410 778L409 778L407 777L407 776L400 773L390 764L383 757L382 757L382 757L382 755L381 754L378 749L374 752L373 776L373 777L372 776L373 752L373 751L380 748L380 747L379 744L378 742L376 743L375 743L374 742L371 731L370 723L370 718L370 709L371 701L372 695L376 685L379 680L383 672L390 662L395 656L396 653L401 643L405 638L410 633L417 629L426 626L434 625L438 625L442 626L449 627L452 627L452 627L453 628L451 636L451 636L451 634L451 633L448 634L441 639L438 642L428 645L423 647L419 650L414 656L413 656L408 656L403 658L399 661L396 665L393 668L393 669L394 672L394 673L390 679L386 686L383 692L381 699L379 706L379 712L379 724L380 729L383 737L384 738L385 738L385 738L381 740L381 742L383 745L384 746L388 744L388 745L387 745L387 746L392 753L396 757L405 764L416 770L426 773L435 774L439 775L441 774L442 772L442 779L447 782L450 783L451 783L454 781L455 781L458 784L460 787L464 793L465 793L474 790L480 788L489 783L491 781L491 779L489 776L486 776L485 776L484 776L484 775L484 772L481 770L475 765L472 760L472 759L471 758L469 755L458 734L461 727L460 726L460 725L463 723L462 720L459 721L456 725L453 732L451 738L450 748L452 757L451 759L450 760L448 759L447 758L446 754L446 748L447 743L448 736L452 726L457 718L455 717L449 724L443 732L441 738L438 751L437 757L436 757L434 758L433 757L433 755L435 746L436 740L441 730L447 722L454 715L453 712L445 716L440 721L435 727L431 732L429 736L427 741L424 752L423 753L422 753L421 752L421 751L422 744L423 740L427 732L431 726L439 717L446 712L451 710L450 707L446 708L438 712L433 715L429 718L422 727L417 737L417 737L417 737L416 740L416 740L414 745L412 745L411 745L411 744L411 740L414 733L417 728L422 721L426 717L436 709L441 707L448 704L448 702L438 703L433 704L425 708L417 713L413 717L403 730L401 729L400 728L400 726L404 721L409 715L421 707L429 703L434 701L441 699L446 699L445 696L441 696L430 697L420 699L415 702L409 706L406 708L400 714L398 713L398 713L397 712L398 710L399 709L404 704L411 700L421 696L425 694L435 693L441 693L441 689L429 687L417 688L409 691L405 692L404 693L403 692L402 692L402 691L402 690L403 689L406 687L416 684L422 684L426 684L431 684L439 686L440 683L434 680L430 679L423 678L412 678L411 677L411 675L412 674L414 674L418 673L425 674L431 675L431 675L432 672L427 669L425 669L424 669L423 668L421 667L422 665L423 664L429 666L433 665L433 665L434 666L435 666L435 665L434 665L434 665L437 662L438 660L439 658L438 658L440 656L439 655L442 654L442 654L443 655L443 656L444 658L442 662L441 669L443 670L444 670L448 659L452 653L455 651L457 652L458 653L458 653L452 661L449 668L447 679L449 680L451 675L455 668L459 662L463 658L470 652L472 651L474 651L475 653L474 655L473 656L466 661L461 665L457 671L454 675L451 684L454 686L460 678L464 673L471 668L476 664L482 661L490 659L492 659L494 659L495 661L494 662L493 663L485 665L479 667L472 671L467 674L463 679L458 685L455 691L457 693L462 687L466 683L472 679L480 675L493 671L502 670L505 670L506 671L506 674L504 675L495 675L488 676L482 678L477 680L470 684L463 690L458 696L459 698L465 694L470 691L477 688L482 686L489 685L499 685L510 687L513 687L514 688L514 690L513 691L512 692L511 692L503 689L493 688L488 688L483 689L471 693L460 701L462 703L468 700L476 698L483 696L489 696L502 697L508 698L513 700L514 701L514 702L514 703L513 704L511 704L502 701L498 700L490 699L485 699L479 700L472 702L464 706L465 708L472 707L477 706L483 706L495 708L499 708L505 711L510 713L511 714L511 715L511 716L509 718L497 712L489 710L484 709L478 709L470 710L466 711L467 713L474 713L484 715L493 718L498 721L502 725L505 727L505 729L504 730L502 730L501 730L497 725L486 718L477 716L468 716L465 718L466 722L470 720L472 722L474 722L476 723L477 724L475 726L474 725L475 727L476 727L477 727L479 726L481 726L483 728L488 737L488 738L489 740L495 752L497 756L497 758L497 761L496 764L495 765L498 767L499 767L499 768L498 770L494 774L496 777L497 778L499 778L500 778L512 772L513 771L511 769L512 769L523 785L523 784L524 783L525 784L525 783L514 766L515 766L516 768L519 766L520 764L519 762L516 763L516 763L515 757L514 749L516 742L516 742L517 743L517 743L517 742L519 742L523 734L523 733L520 730L522 731L524 728L530 715L532 704L533 700L533 690L531 677L527 669L527 669L526 670L526 669L529 667L526 661L522 664L523 662L521 659L514 651L509 647L503 643L491 638L482 636L470 635L462 635L459 636L459 636L458 638L458 638L458 633L459 626L460 626L470 626L483 627L493 629L501 632L513 639L518 642L523 647L527 651L532 658L531 659L529 660L529 660L531 664L532 665L532 665L540 661L560 675L559 676L540 662L535 664L539 673L540 672L540 673L542 682L542 689L542 700L543 701L543 702L542 703L540 714L544 716L545 716L546 710L548 701L548 692L547 683L547 678L545 677L548 675L549 675L547 677L549 691L548 706L545 718L539 733L540 735L536 735L536 734L538 733L544 719L544 718L539 717L534 729L534 729L533 729L530 734L529 735L527 735L526 735L524 740L522 746L521 753L522 760L523 762L523 763L525 763L526 762L529 760L531 758L533 756L540 752L543 748L546 747L547 744L548 745L547 748L543 749L542 750L542 751L542 754L544 755L545 754L545 757L548 757L548 753L547 752L547 750L550 750L552 750L555 749L558 746L559 744L558 739L559 735L559 734L562 730L563 730L563 731L560 734L558 739L559 743L560 743L561 744L561 742L562 743L568 743L570 743L570 742L571 742L572 742L571 737L570 736L571 735L568 734L564 735L563 734L564 734L568 734L571 734L572 736L574 741L574 741L579 740L583 739L594 733L595 732L594 730L593 730L594 728L574 677L578 668L579 668L579 669L575 677L587 709L588 709L588 709L591 708L591 709L588 710L590 715L590 715L590 716L597 719L598 720L602 731L602 731L618 773L617 773L606 785L606 785L604 787L610 794L613 792L619 798L683 737L676 729L632 772L632 772L625 753L669 711L659 700L620 737L619 736L618 737L618 737L618 737L613 732L613 732L607 716L612 708L611 705L609 705L609 703L610 701L608 698L607 698L606 695L607 694L606 691L604 691L603 688L604 687L603 684L601 683L600 681L602 680L600 677L599 676L598 674L599 673L598 670L593 671L592 671L592 670L591 667L590 667L590 665L660 651L661 652L661 652L660 648L662 647L662 647L664 651L664 655L665 659L668 659L671 658L673 656L671 653L671 653L670 652L672 650L673 651L674 650L677 652L674 656L672 657Z" fill="#f47b49"/>
<circle cx="630" cy="696" r="11" fill="#efe9e0"/><text x="630" y="696" text-anchor="middle" dominant-baseline="central" font-size="12" font-weight="500" font-family="system-ui,sans-serif" fill="#1f1d1b">1</text><circle cx="507" cy="942" r="11" fill="#efe9e0"/><text x="507" y="942" text-anchor="middle" dominant-baseline="central" font-size="12" font-weight="500" font-family="system-ui,sans-serif" fill="#1f1d1b">2</text><circle cx="848" cy="830" r="11" fill="#efe9e0"/><text x="848" y="830" text-anchor="middle" dominant-baseline="central" font-size="12" font-weight="500" font-family="system-ui,sans-serif" fill="#1f1d1b">3</text><circle cx="876" cy="999" r="11" fill="#efe9e0"/><text x="876" y="999" text-anchor="middle" dominant-baseline="central" font-size="12" font-weight="500" font-family="system-ui,sans-serif" fill="#1f1d1b">4</text><circle cx="770" cy="604" r="11" fill="#efe9e0"/><text x="770" y="604" text-anchor="middle" dominant-baseline="central" font-size="12" font-weight="500" font-family="system-ui,sans-serif" fill="#1f1d1b">5</text><circle cx="825" cy="508" r="11" fill="#efe9e0"/><text x="825" y="508" text-anchor="middle" dominant-baseline="central" font-size="12" font-weight="500" font-family="system-ui,sans-serif" fill="#1f1d1b">6</text><circle cx="778" cy="509" r="11" fill="#efe9e0"/><text x="778" y="509" text-anchor="middle" dominant-baseline="central" font-size="12" font-weight="500" font-family="system-ui,sans-serif" fill="#1f1d1b">7</text><circle cx="822" cy="422" r="11" fill="#efe9e0"/><text x="822" y="422" text-anchor="middle" dominant-baseline="central" font-size="12" font-weight="500" font-family="system-ui,sans-serif" fill="#1f1d1b">8</text><circle cx="970" cy="407" r="11" fill="#efe9e0"/><text x="970" y="407" text-anchor="middle" dominant-baseline="central" font-size="12" font-weight="500" font-family="system-ui,sans-serif" fill="#1f1d1b">9</text><circle cx="934" cy="345" r="11" fill="#efe9e0"/><text x="934" y="345" text-anchor="middle" dominant-baseline="central" font-size="12" font-weight="500" font-family="system-ui,sans-serif" fill="#1f1d1b">10</text><circle cx="1150" cy="195" r="11" fill="#efe9e0"/><text x="1150" y="195" text-anchor="middle" dominant-baseline="central" font-size="12" font-weight="500" font-family="system-ui,sans-serif" fill="#1f1d1b">11</text><circle cx="1371" cy="45" r="11" fill="#efe9e0"/><text x="1371" y="45" text-anchor="middle" dominant-baseline="central" font-size="12" font-weight="500" font-family="system-ui,sans-serif" fill="#1f1d1b">12</text>
<circle cx="486" cy="717" r="28" fill="none" stroke="#f47b49" stroke-width="1.5" opacity=".5"/>
<circle cx="486" cy="717" r="8" fill="#fff"/>
<path d="M466 697L461 532L311 532" fill="none" stroke="#f47b49" stroke-width="1.5" opacity=".85"/>
<text x="311" y="502" font-size="46" fill="#fff" font-family="Cormorant Garamond,Georgia,serif">Wave Crest</text>
<text x="311" y="524" font-size="15" letter-spacing="2.6" font-family="system-ui,sans-serif" fill="#f47b49">PALM JEBEL ALI · FROND A</text>
</svg>